<svg width="167" height="150" viewBox="0 0 167 150" fill="none" xmlns="http://www.w3.org/2000/svg">
<path d="M3.64703e-08 0L1.09594e-10 31.6871C0.551011 31.9234 1.09548 32.1929 1.63341 32.4954C4.22775 33.7394 6.41246 35.9511 8.18753 39.1303C10.0992 42.3095 11.6011 46.5254 12.6935 51.778C13.7858 56.8923 14.332 63.2508 14.332 70.8532V75C14.332 83.7083 13.7858 90.9652 12.6935 96.7707C11.6011 102.438 10.0992 106.999 8.18753 110.455C6.41246 113.772 4.22775 116.122 1.63341 117.505C1.09548 117.807 0.551011 118.077 0 118.313L3.64703e-08 150C5.75995 149.496 11.22 148.271 16.3802 146.325C23.3439 143.56 29.4201 139.206 34.6088 133.262C39.7975 127.319 43.8255 119.578 46.693 110.04C49.6969 100.365 51.1989 88.6844 51.1989 75V70.8532C51.1989 58.1364 49.6969 47.2856 46.693 38.3009C43.8255 29.3162 39.7975 21.9902 34.6088 16.3229C29.4201 10.5174 23.3439 6.30151 16.3802 3.67521C11.22 1.7291 5.75995 0.504034 3.64703e-08 0Z" fill="#03496A"/>
<path d="M77.7846 116.883C75.0232 116.883 72.7846 119.153 72.7846 121.954V142.497C72.7846 145.298 75.0232 147.569 77.7846 147.569H162C164.761 147.569 167 145.298 167 142.497V121.954C167 119.153 164.761 116.883 162 116.883H146.398C143.637 116.883 141.398 114.612 141.398 111.811V7.50291C141.398 4.70186 139.159 2.43116 136.398 2.43116H106.331C105.293 2.43116 104.282 2.75846 103.436 3.36772L74.8897 23.9295C73.5691 24.8808 72.7846 26.4219 72.7846 28.0647V52.9599C72.7846 57.0758 77.3632 59.4776 80.6745 57.0987L96.6412 45.6279C99.9525 43.249 104.531 45.6507 104.531 49.7667V111.811C104.531 114.612 102.293 116.883 99.5311 116.883H77.7846Z" fill="#03496A"/>
</svg>
