<svg width="170" height="150" viewBox="0 0 170 150" fill="none" xmlns="http://www.w3.org/2000/svg">
<path fill-rule="evenodd" clip-rule="evenodd" d="M0 150C6.22435 149.681 12.0796 148.398 17.5657 146.152C23.9611 143.395 29.5414 139.054 34.3066 133.128C39.0718 127.202 42.7711 119.485 45.4045 109.976C48.1633 100.329 49.5427 88.6833 49.5427 75.0397V70.9053C49.5427 58.2264 48.1633 47.408 45.4045 38.4501C42.7711 29.4922 39.0718 22.1881 34.3066 16.5377C29.5414 10.7495 23.9611 6.54617 17.5657 3.92771C12.0796 1.68152 6.22435 0.398745 0 0.0793932V30.967C1.38239 31.3037 2.72324 31.8686 4.02253 32.6619C6.40513 33.9022 8.41153 36.1073 10.0417 39.277C11.7973 42.4467 13.1767 46.65 14.1799 51.887C15.1831 56.9861 15.6847 63.3255 15.6847 70.9053V75.0397C15.6847 83.722 15.1831 90.9572 14.1799 96.7454C13.1767 102.396 11.7973 106.944 10.0417 110.389C8.41153 113.697 6.40513 116.039 4.02253 117.417C2.72324 118.211 1.38239 118.776 0 119.112V150ZM110.184 81.2413L68.1809 119.444C67.139 120.392 66.5451 121.735 66.5451 123.143V142.392C66.5451 145.153 68.7837 147.392 71.5451 147.392H165C167.761 147.392 170 145.153 170 142.392V121.797C170 119.036 167.761 116.797 165 116.797H127.54C122.866 116.797 120.748 110.957 124.334 107.961L136.518 97.779C141.033 93.9202 145.234 89.9925 149.121 85.9959C153.008 81.9993 156.331 77.8649 159.09 73.5927C161.974 69.3204 164.169 64.9104 165.674 60.3625C167.304 55.8147 168.119 51.0601 168.119 46.0988C168.119 39.3459 167.116 33.1443 165.109 27.4939C163.228 21.8435 160.281 17.02 156.269 13.0234C152.256 8.88901 147.24 5.71929 141.221 3.51426C135.202 1.17142 128.179 0 120.154 0C102.848 0 89.8695 4.82349 81.2169 14.4705C73.5132 23.1858 69.2894 35.163 68.5454 50.4022C68.4108 53.1603 70.6647 55.4012 73.4261 55.4012H97.2841C100.045 55.4012 102.249 53.1521 102.494 50.4016C103.645 37.4726 109.531 31.0081 120.154 31.0081C124.668 31.0081 128.116 32.3174 130.499 34.9358C133.007 37.5543 134.261 41.2753 134.261 46.0988C134.261 48.8551 133.759 51.5424 132.756 54.1609C131.878 56.6415 130.436 59.26 128.43 62.0163C126.549 64.7726 124.104 67.7356 121.094 70.9053C118.084 73.9372 114.448 77.3825 110.184 81.2413Z" fill="white"/>
</svg>
