<svg width="167" height="150" viewBox="0 0 167 150" fill="none" xmlns="http://www.w3.org/2000/svg">
<path fill-rule="evenodd" clip-rule="evenodd" d="M0 150C6.11451 149.681 11.8664 148.398 17.2557 146.152C23.5383 143.395 29.0201 139.054 33.7012 133.128C38.3823 127.202 42.0163 119.485 44.6032 109.976C47.3133 100.329 48.6684 88.6833 48.6684 75.0397V70.9053C48.6684 58.2264 47.3133 47.408 44.6032 38.4501C42.0163 29.4922 38.3823 22.1881 33.7012 16.5377C29.0201 10.7495 23.5383 6.54617 17.2557 3.92771C11.8664 1.68152 6.11451 0.398745 0 0.0793932V30.967C1.358 31.3037 2.67518 31.8686 3.95155 32.6619C6.2921 33.9022 8.26309 36.1073 9.86452 39.277C11.5891 42.4467 12.9442 46.65 13.9297 51.887C14.9152 56.9861 15.4079 63.3255 15.4079 70.9053V75.0397C15.4079 83.722 14.9152 90.9572 13.9297 96.7454C12.9442 102.396 11.5891 106.944 9.86452 110.389C8.26309 113.697 6.2921 116.039 3.95155 117.417C2.67518 118.211 1.358 118.776 0 119.112V150ZM108.24 81.2413L65.3708 120.932V147.392H167V116.797H111.751L134.109 97.779C138.544 93.9202 142.671 89.9925 146.489 85.9959C150.308 81.9993 153.573 77.8649 156.283 73.5927C159.116 69.3204 161.272 64.9104 162.75 60.3625C164.351 55.8147 165.152 51.0601 165.152 46.0988C165.152 39.3459 164.167 33.1443 162.196 27.4939C160.348 21.8435 157.453 17.02 153.511 13.0234C149.569 8.88901 144.642 5.71929 138.729 3.51426C132.816 1.17142 125.917 0 118.033 0C101.033 0 88.2836 4.82349 79.7837 14.4705C71.407 24.1175 67.2186 37.761 67.2186 55.4012H100.479C100.479 39.1392 106.33 31.0081 118.033 31.0081C122.468 31.0081 125.856 32.3174 128.196 34.9358C130.66 37.5543 131.892 41.2753 131.892 46.0988C131.892 48.8551 131.399 51.5424 130.413 54.1609C129.551 56.6415 128.135 59.26 126.164 62.0163C124.316 64.7726 121.914 67.7356 118.957 70.9053C116.001 73.9372 112.428 77.3825 108.24 81.2413Z" fill="#03496A"/>
</svg>
