<svg width="170" height="150" viewBox="0 0 170 150" fill="none" xmlns="http://www.w3.org/2000/svg">
<path fill-rule="evenodd" clip-rule="evenodd" d="M0 149.491C4.65661 148.888 9.10085 147.749 13.3327 146.074C19.9465 143.32 25.7174 138.981 30.6453 133.058C35.5732 127.135 39.3988 119.421 42.1222 109.917C44.9752 100.275 46.4017 88.6364 46.4017 75V70.8678C46.4017 58.1956 44.9752 47.3829 42.1222 38.4298C39.3988 29.4766 35.5732 22.1763 30.6453 16.5289C25.7174 10.7438 19.9465 6.54271 13.3327 3.92563C9.10085 2.25108 4.65661 1.11226 0 0.509175V33.0129C2.17107 34.2998 4.02166 36.3809 5.55177 39.2562C7.36732 42.4243 8.79383 46.6254 9.83129 51.8595C10.8687 56.9559 11.3875 63.292 11.3875 70.8678V75C11.3875 83.6777 10.8687 90.9091 9.83129 96.6942C8.79383 102.342 7.36732 106.887 5.55177 110.331C4.02166 113.331 2.17107 115.537 0 116.949V149.491ZM94.5249 146.281C101.139 148.76 108.79 150 117.479 150C125.519 150 132.781 148.967 139.265 146.901C145.749 144.697 151.261 141.667 155.8 137.81C160.339 133.953 163.84 129.339 166.304 123.967C168.768 118.595 170 112.603 170 105.992C170 96.9008 167.86 89.5317 163.581 83.8843C159.431 78.2369 153.271 74.2424 145.101 71.9008C152.104 69.5592 157.68 65.6336 161.83 60.124C165.98 54.6143 168.055 47.9339 168.055 40.0826C168.055 34.1598 166.888 28.7879 164.553 23.967C162.349 19.0083 159.107 14.8072 154.827 11.3636C150.548 7.78238 145.231 5.02756 138.876 3.09918C132.652 1.03306 125.519 0 117.479 0C101.268 0 88.7541 4.33884 79.9357 13.0165C72.2087 20.7337 67.9176 31.1197 67.0623 44.1747C66.8818 46.9302 69.1412 49.1736 71.9026 49.1736H96.9168C99.6782 49.1736 101.848 46.9162 102.279 44.1886C103.669 35.3907 109.06 30.9917 118.451 30.9917C123.12 30.9917 126.686 32.2314 129.15 34.7108C131.744 37.0524 133.041 40.3581 133.041 44.6281C133.041 54.4077 127.853 59.2975 117.479 59.2975H111.002C108.24 59.2975 106.002 61.5361 106.002 64.2975V81.5703C106.002 84.3317 108.24 86.5703 111.002 86.5703H117.479C123.574 86.5703 127.983 87.9477 130.706 90.7025C133.559 93.4573 134.986 97.4518 134.986 102.686C134.986 107.782 133.624 111.777 130.901 114.669C128.177 117.562 124.028 119.008 118.451 119.008C111.967 119.008 107.234 117.355 104.251 114.05C102.15 111.513 100.822 108.08 100.268 103.749C99.9183 101.01 97.733 98.7603 94.9716 98.7603H69.9574C67.196 98.7603 64.9365 101.002 65.1289 103.757C65.5167 109.307 66.5618 114.528 68.2643 119.421C70.4689 125.62 73.7758 130.992 78.185 135.537C82.5942 140.083 88.0408 143.664 94.5249 146.281Z" fill="white"/>
</svg>
