<svg width="167" height="150" viewBox="0 0 167 150" fill="none" xmlns="http://www.w3.org/2000/svg">
<path fill-rule="evenodd" clip-rule="evenodd" d="M0 149.491C4.57443 148.888 8.94024 147.749 13.0974 146.074C19.5945 143.32 25.2635 138.981 30.1045 133.058C34.9455 127.135 38.7036 119.421 41.3788 109.917C44.1815 100.275 45.5828 88.6364 45.5828 75V70.8678C45.5828 58.1956 44.1815 47.3829 41.3788 38.4298C38.7036 29.4766 34.9455 22.1763 30.1045 16.5289C25.2635 10.7438 19.5945 6.54271 13.0974 3.92563C8.94024 2.25108 4.57443 1.11226 0 0.509175V33.0129C2.13276 34.2998 3.95069 36.3809 5.4538 39.2562C7.23731 42.4243 8.63864 46.6254 9.65779 51.8595C10.6769 56.9559 11.1865 63.292 11.1865 70.8678V75C11.1865 83.6777 10.6769 90.9091 9.65779 96.6942C8.63864 102.342 7.23731 106.887 5.4538 110.331C3.95069 113.331 2.13276 115.537 0 116.949V149.491ZM92.8568 146.281C99.3539 148.76 106.87 150 115.406 150C123.304 150 130.438 148.967 136.808 146.901C143.177 144.697 148.592 141.667 153.05 137.81C157.509 133.953 160.949 129.339 163.369 123.967C165.79 118.595 167 112.603 167 105.992C167 96.9008 164.898 89.5317 160.694 83.8843C156.617 78.2369 150.566 74.2424 142.54 71.9008C149.42 69.5592 154.898 65.6336 158.974 60.124C163.051 54.6143 165.089 47.9339 165.089 40.0826C165.089 34.1598 163.943 28.7879 161.649 23.967C159.484 19.0083 156.299 14.8072 152.095 11.3636C147.891 7.78238 142.668 5.02756 136.426 3.09918C130.311 1.03306 123.304 0 115.406 0C99.4813 0 87.1878 4.33884 78.5251 13.0165C69.9897 21.6942 65.722 33.7466 65.722 49.1736H100.118C100.118 37.0523 105.533 30.9917 116.361 30.9917C120.947 30.9917 124.45 32.2314 126.871 34.7107C129.419 37.0523 130.693 40.3581 130.693 44.6281C130.693 54.4077 125.597 59.2975 115.406 59.2975H104.131V86.5703H115.406C121.393 86.5703 125.724 87.9477 128.4 90.7025C131.202 93.4573 132.604 97.4518 132.604 102.686C132.604 107.782 131.266 111.777 128.591 114.669C125.916 117.562 121.839 119.008 116.361 119.008C109.991 119.008 105.341 117.355 102.411 114.05C99.6087 110.606 98.2074 105.51 98.2074 98.7603H63.8111C63.8111 106.198 64.8939 113.085 67.0596 119.421C69.2253 125.62 72.4738 130.992 76.8052 135.537C81.1366 140.083 86.4872 143.664 92.8568 146.281Z" fill="#03496A"/>
</svg>
