<svg width="170" height="150" viewBox="0 0 170 150" fill="none" xmlns="http://www.w3.org/2000/svg">
<path fill-rule="evenodd" clip-rule="evenodd" d="M0 149.981C0.491862 149.994 0.986083 150 1.48266 150C8.56884 150 15.1746 148.691 21.3 146.074C27.4253 143.32 32.77 138.981 37.3339 133.058C41.8979 127.135 45.441 119.421 47.9632 109.917C50.6055 100.275 51.9267 88.6364 51.9267 75V70.8678C51.9267 58.1956 50.6055 47.3829 47.9632 38.4298C45.441 29.4766 41.8979 22.1763 37.3339 16.5289C32.77 10.7438 27.4253 6.54271 21.3 3.92563C15.1746 1.30854 8.56884 0 1.48266 0C0.986083 0 0.491862 0.00642602 0 0.0192781V30.6669C0.491652 30.608 0.985874 30.5785 1.48266 30.5785C3.88476 30.5785 6.16675 31.2672 8.32863 32.6446C10.6106 33.8843 12.5323 36.0882 14.0937 39.2562C15.7751 42.4243 17.0963 46.6254 18.0571 51.8595C19.018 56.9559 19.4984 63.292 19.4984 70.8678V75C19.4984 83.6777 19.018 90.9091 18.0571 96.6942C17.0963 102.342 15.7751 106.887 14.0937 110.331C12.5323 113.636 10.6106 115.978 8.32863 117.355C6.16675 118.733 3.88476 119.421 1.48266 119.421C0.985874 119.421 0.491652 119.392 0 119.333V149.981ZM67.3104 114.215C67.3104 116.976 69.549 119.215 72.3104 119.215H118.88C121.641 119.215 123.88 121.453 123.88 124.215V142.314C123.88 145.075 126.118 147.314 128.88 147.314H151.308C154.069 147.314 156.308 145.075 156.308 142.314V124.215C156.308 121.453 158.547 119.215 161.308 119.215H165C167.761 119.215 170 116.976 170 114.215V93.6364C170 90.8749 167.761 88.6364 165 88.6364H161.308C158.547 88.6364 156.308 86.3978 156.308 83.6364V7.68595C156.308 4.92453 154.069 2.68595 151.308 2.68595H128.767C127.068 2.68595 125.485 3.54887 124.565 4.97705L68.1078 92.5646C67.5872 93.3722 67.3104 94.3126 67.3104 95.2735V114.215ZM120.176 49.8261C121.232 48.1077 123.88 48.8564 123.88 50.8735V85.6364C123.88 87.2932 122.537 88.6364 120.88 88.6364H101.682C99.3353 88.6364 97.8972 86.064 99.126 84.0652L120.176 49.8261Z" fill="white"/>
</svg>
