<svg width="167" height="150" viewBox="0 0 167 150" fill="none" xmlns="http://www.w3.org/2000/svg">
<path fill-rule="evenodd" clip-rule="evenodd" d="M0 149.981C0.483182 149.994 0.968681 150 1.4565 150C8.41763 150 14.9068 148.691 20.9241 146.074C26.9413 143.32 32.1917 138.981 36.6751 133.058C41.1586 127.135 44.6391 119.421 47.1168 109.917C49.7125 100.275 51.0103 88.6364 51.0103 75V70.8678C51.0103 58.1956 49.7125 47.3829 47.1168 38.4298C44.6391 29.4766 41.1586 22.1763 36.6751 16.5289C32.1917 10.7438 26.9413 6.54271 20.9241 3.92563C14.9068 1.30854 8.41763 0 1.4565 0C0.968681 0 0.483182 0.00642602 0 0.0192781V30.6669C0.482976 30.608 0.968476 30.5785 1.4565 30.5785C3.81621 30.5785 6.05793 31.2672 8.18166 32.6446C10.4234 33.8843 12.3111 36.0882 13.845 39.2562C15.4967 42.4243 16.7946 46.6254 17.7385 51.8595C18.6824 56.9559 19.1543 63.292 19.1543 70.8678V75C19.1543 83.6777 18.6824 90.9091 17.7385 96.6942C16.7946 102.342 15.4967 106.887 13.845 110.331C12.3111 113.636 10.4234 115.978 8.18166 117.355C6.05793 118.733 3.81621 119.421 1.4565 119.421C0.968476 119.421 0.482976 119.392 0 119.333V149.981ZM66.1226 119.215H121.694V147.314H153.55V119.215H167V88.6364H153.55V2.68595H123.817L66.1226 93.8017V119.215ZM121.694 43.8017V88.6364H94.616L121.694 43.8017Z" fill="#03496A"/>
</svg>
