<svg width="170" height="150" viewBox="0 0 170 150" fill="none" xmlns="http://www.w3.org/2000/svg">
<path fill-rule="evenodd" clip-rule="evenodd" d="M0 149.969C6.61577 149.758 12.8178 148.459 18.6062 146.074C24.9579 143.318 30.5001 138.978 35.2328 133.054C39.9655 127.13 43.6395 119.415 46.2549 109.909C48.9949 100.265 50.3649 88.6237 50.3649 74.9846V70.8515C50.3649 58.1767 48.9949 47.3618 46.2549 38.4068C43.6395 29.4518 39.9655 22.15 35.2328 16.5014C30.5001 10.7151 24.9579 6.51316 18.6062 3.89555C12.8178 1.51011 6.61577 0.21159 0 0V30.6975C1.78602 30.9649 3.50449 31.6059 5.15542 32.6205C7.52176 33.8604 9.51446 36.0647 11.1335 39.2334C12.8771 42.4021 14.2471 46.6041 15.2435 51.8393C16.2398 56.9368 16.738 63.2742 16.738 70.8515V74.9846C16.738 83.664 16.2398 90.8969 15.2435 96.6832C14.2471 102.332 12.8771 106.878 11.1335 110.322C9.51446 113.629 7.52176 115.971 5.15542 117.349C3.50449 118.363 1.78602 119.004 0 119.272V149.969ZM96.955 146.28C103.058 148.76 110.593 150 119.56 150C127.281 150 134.256 148.76 140.483 146.28C146.71 143.8 152.003 140.287 156.362 135.741C160.721 131.194 164.084 125.684 166.451 119.209C168.817 112.733 170 105.5 170 97.5099C170 89.1059 168.941 81.8041 166.824 75.6045C164.831 69.2671 161.967 63.963 158.231 59.6922C154.494 55.4213 150.011 52.2526 144.78 50.1861C139.549 47.9818 133.82 46.8796 127.593 46.8796C118.501 46.8796 111.34 49.015 106.109 53.2859V38.0338C106.109 35.2723 108.348 33.0338 111.109 33.0338H157.714C160.476 33.0338 162.714 30.7952 162.714 28.0338V7.65561C162.714 4.89419 160.476 2.65561 157.714 2.65561H78.7898C76.0284 2.65561 73.7898 4.89419 73.7898 7.65562V80.3173C73.7898 83.0787 76.0284 85.3173 78.7898 85.3173H101.503C103.209 85.3173 104.762 84.4165 105.851 83.1043C109.317 78.9311 113.886 76.8444 119.56 76.8444C124.292 76.8444 128.216 78.4288 131.329 81.5975C134.443 84.6284 135.999 90.0703 135.999 97.9232C135.999 105.363 134.692 111.149 132.076 115.282C129.585 119.277 125.413 121.275 119.56 121.275C114.827 121.275 111.028 119.622 108.164 116.315C106.17 113.918 104.81 111.019 104.083 107.621C103.524 105.006 101.388 102.883 98.7144 102.883H76.0868C73.2869 102.883 71.0133 105.185 71.2671 107.974C71.6777 112.485 72.5186 116.85 73.7898 121.068C75.5334 126.717 78.2734 131.677 82.0097 135.948C85.8706 140.218 90.8523 143.663 96.955 146.28Z" fill="white"/>
</svg>
