<svg width="167" height="150" viewBox="0 0 167 150" fill="none" xmlns="http://www.w3.org/2000/svg">
<path fill-rule="evenodd" clip-rule="evenodd" d="M0 149.969C6.49902 149.758 12.5916 148.459 18.2778 146.074C24.5175 143.318 29.9619 138.978 34.611 133.054C39.2602 127.13 42.8694 119.415 45.4386 109.909C48.1303 100.265 49.4761 88.6237 49.4761 74.9846V70.8515C49.4761 58.1767 48.1303 47.3618 45.4386 38.4068C42.8694 29.4518 39.2602 22.15 34.611 16.5014C29.9619 10.7151 24.5175 6.51316 18.2778 3.89555C12.5916 1.51011 6.49902 0.21159 0 0V30.6975C1.7545 30.9649 3.44265 31.6059 5.06444 32.6205C7.38902 33.8604 9.34656 36.0647 10.9371 39.2334C12.6499 42.4021 13.9957 46.6041 14.9745 51.8393C15.9532 56.9368 16.4426 63.2742 16.4426 70.8515V74.9846C16.4426 83.664 15.9532 90.8969 14.9745 96.6832C13.9957 102.332 12.6499 106.878 10.9371 110.322C9.34656 113.629 7.38902 115.971 5.06444 117.349C3.44265 118.363 1.7545 119.004 0 119.272V149.969ZM95.244 146.28C101.239 148.76 108.641 150 117.45 150C125.035 150 131.887 148.76 138.004 146.28C144.121 143.8 149.321 140.287 153.603 135.741C157.885 131.194 161.189 125.684 163.513 119.209C165.838 112.733 167 105.5 167 97.5099C167 89.1059 165.96 81.8041 163.88 75.6045C161.923 69.2671 159.109 63.963 155.438 59.6922C151.768 55.4213 147.363 52.2526 142.225 50.1861C137.086 47.9818 131.458 46.8796 125.341 46.8796C116.41 46.8796 109.375 49.015 104.236 53.2859V33.0338H159.843V2.65561H72.4876V85.3173H102.401C105.949 79.6687 110.965 76.8444 117.45 76.8444C122.099 76.8444 125.953 78.4288 129.012 81.5975C132.07 84.6284 133.6 90.0703 133.6 97.9232C133.6 105.363 132.315 111.149 129.746 115.282C127.299 119.277 123.2 121.275 117.45 121.275C112.801 121.275 109.069 119.622 106.255 116.315C103.441 112.871 101.912 108.394 101.667 102.883H69.7349C69.8572 109.22 70.7748 115.282 72.4876 121.068C74.2005 126.717 76.8921 131.677 80.5625 135.948C84.3552 140.218 89.2491 143.663 95.244 146.28Z" fill="#03496A"/>
</svg>
