<svg width="170" height="150" viewBox="0 0 170 150" fill="none" xmlns="http://www.w3.org/2000/svg">
<path fill-rule="evenodd" clip-rule="evenodd" d="M0 149.849C5.70299 149.437 11.0867 148.178 16.151 146.074C22.4503 143.32 27.9467 138.981 32.6403 133.058C37.3339 127.135 40.9776 119.421 43.5714 109.917C46.2887 100.275 47.6474 88.6364 47.6474 75V70.8678C47.6474 58.1956 46.2887 47.3829 43.5714 38.4298C40.9776 29.4766 37.3339 22.1763 32.6403 16.5289C27.9467 10.7438 22.4503 6.54271 16.151 3.92563C11.0867 1.82162 5.70299 0.563365 0 0.150879V31.2927C0.958079 31.6264 1.89519 32.0771 2.81132 32.6446C5.15811 33.8843 7.13436 36.0882 8.74006 39.2562C10.4693 42.4243 11.8279 46.6254 12.8161 51.8595C13.8042 56.9559 14.2983 63.292 14.2983 70.8678V75C14.2983 83.6777 13.8042 90.9091 12.8161 96.6942C11.8279 102.342 10.4693 106.887 8.74006 110.331C7.13436 113.636 5.15811 115.978 2.81132 117.355C1.89519 117.923 0.958079 118.374 0 118.707V149.849ZM81.6247 133.678C90.6414 144.559 103.734 150 120.903 150C128.314 150 134.983 148.829 140.912 146.488C146.964 144.008 152.152 140.634 156.475 136.364C160.798 131.956 164.133 126.722 166.48 120.661C168.827 114.463 170 107.576 170 100V97.7273C170 84.0909 166.48 73.2094 159.439 65.0826C152.399 56.8182 142.394 52.686 129.425 52.686C123.373 52.686 117.691 53.6501 112.38 55.5785C109.439 56.6463 106.858 58.1576 104.636 60.1124C103.109 61.4568 100.14 60.4283 100.296 58.3992C100.603 54.4072 101.111 50.9187 101.82 47.9339C103.055 43.1129 104.599 39.3251 106.451 36.5703C108.304 33.6777 110.527 31.6804 113.121 30.5785C115.715 29.4766 118.618 28.9256 121.829 28.9256C127.847 28.9256 132.013 31.0348 134.328 35.253C135.422 37.2468 137.311 38.843 139.585 38.843H161.719C164.669 38.843 166.999 36.2953 166.505 33.3871C164.585 22.0649 160.254 13.8973 153.511 8.88431C145.853 2.96144 135.601 0 122.755 0C114.603 0 107.131 1.44628 100.337 4.33885C93.6675 7.09367 87.924 11.5703 83.1069 17.7686C78.4133 23.8292 74.7079 31.6805 71.9905 41.3223C69.3967 50.8265 68.0998 62.3967 68.0998 76.0331V80.1653C68.0998 104.821 72.6081 122.658 81.6247 133.678ZM131.834 115.909C128.746 119.353 124.485 121.074 119.05 121.074C113.615 121.074 109.292 119.353 106.081 115.909C102.993 112.328 101.449 107.438 101.449 101.24V99.1736C101.449 93.1129 102.993 88.3609 106.081 84.9174C109.292 81.3361 113.615 79.5455 119.05 79.5455C124.485 79.5455 128.746 81.3361 131.834 84.9174C135.045 88.3609 136.651 93.1129 136.651 99.1736V101.24C136.651 107.438 135.045 112.328 131.834 115.909Z" fill="white"/>
</svg>
