<svg width="167" height="150" viewBox="0 0 167 150" fill="none" xmlns="http://www.w3.org/2000/svg">
<path fill-rule="evenodd" clip-rule="evenodd" d="M0 149.849C5.60235 149.437 10.891 148.178 15.866 146.074C22.0541 143.32 27.4535 138.981 32.0643 133.058C36.675 127.135 40.2544 119.421 42.8025 109.917C45.4719 100.275 46.8066 88.6364 46.8066 75V70.8678C46.8066 58.1956 45.4719 47.3829 42.8025 38.4298C40.2544 29.4766 36.675 22.1763 32.0643 16.5289C27.4535 10.7438 22.0541 6.54271 15.866 3.92563C10.891 1.82162 5.60235 0.563365 0 0.150879V31.2927C0.941172 31.6264 1.86174 32.0771 2.76171 32.6446C5.06709 33.8843 7.00846 36.0882 8.58582 39.2562C10.2845 42.4243 11.6192 46.6254 12.5899 51.8595C13.5606 56.9559 14.0459 63.292 14.0459 70.8678V75C14.0459 83.6777 13.5606 90.9091 12.5899 96.6942C11.6192 102.342 10.2845 106.887 8.58582 110.331C7.00846 113.636 5.06709 115.978 2.76171 117.355C1.86174 117.923 0.941172 118.374 0 118.707V149.849ZM80.1843 133.678C89.0418 144.559 101.903 150 118.769 150C126.049 150 132.601 148.829 138.425 146.488C144.371 144.008 149.467 140.634 153.714 136.364C157.961 131.956 161.237 126.722 163.542 120.661C165.847 114.463 167 107.576 167 100V97.7273C167 84.0909 163.542 73.2094 156.626 65.0826C149.71 56.8182 139.881 52.686 127.141 52.686C121.196 52.686 115.614 53.6501 110.397 55.5785C105.179 57.5069 101.115 60.8816 98.2027 65.7025C98.324 58.54 98.9307 52.6171 100.023 47.9339C101.236 43.113 102.753 39.3251 104.573 36.5703C106.393 33.6777 108.577 31.6804 111.125 30.5785C113.673 29.4766 116.524 28.9256 119.679 28.9256C127.081 28.9256 131.631 32.2314 133.329 38.843H164.27C162.935 24.6557 158.446 14.6694 150.802 8.88431C143.279 2.96144 133.208 0 120.589 0C112.581 0 105.24 1.44628 98.5667 4.33885C92.0145 7.09367 86.3724 11.5703 81.6403 17.7686C77.0296 23.8292 73.3895 31.6805 70.7201 41.3223C68.1721 50.8265 66.898 62.3967 66.898 76.0331V80.1653C66.898 104.821 71.3268 122.658 80.1843 133.678ZM129.507 115.909C126.474 119.353 122.288 121.074 116.949 121.074C111.61 121.074 107.364 119.353 104.209 115.909C101.175 112.328 99.6587 107.438 99.6587 101.24V99.1736C99.6587 93.1129 101.175 88.3609 104.209 84.9174C107.364 81.3361 111.61 79.5455 116.949 79.5455C122.288 79.5455 126.474 81.3361 129.507 84.9174C132.662 88.3609 134.239 93.1129 134.239 99.1736V101.24C134.239 107.438 132.662 112.328 129.507 115.909Z" fill="#03496A"/>
</svg>
