<svg width="170" height="150" viewBox="0 0 170 150" fill="none" xmlns="http://www.w3.org/2000/svg">
<path fill-rule="evenodd" clip-rule="evenodd" d="M0 150C7.45168 149.91 14.4138 148.603 20.8863 146.079C27.5979 143.324 33.4541 138.985 38.4549 133.062C43.4557 127.138 47.3379 119.424 50.1014 109.92C52.9966 100.277 54.4442 88.6373 54.4442 75V70.8675C54.4442 58.1945 52.9966 47.3811 50.1014 38.4273C47.3379 29.4736 43.4557 22.1728 38.4549 16.5251C33.4541 10.7395 27.5979 6.53816 20.8863 3.92091C14.4138 1.39687 7.45168 0.0898961 0 0V30.5985C2.32985 30.7284 4.55438 31.4095 6.67357 32.6418C9.17397 33.8816 11.2796 36.0856 12.9904 39.2538C14.8327 42.4221 16.2803 46.6235 17.3331 51.858C18.3859 56.9547 18.9123 63.2912 18.9123 70.8675V75C18.9123 83.6783 18.3859 90.9101 17.3331 96.6957C16.2803 102.343 14.8327 106.889 12.9904 110.333C11.2796 113.639 9.17397 115.981 6.67357 117.358C4.55438 118.591 2.32985 119.272 0 119.402V150ZM71.3003 28.0551C71.3003 30.8165 73.5389 33.0551 76.3003 33.0551H131.136C132.546 33.0551 133.514 34.4758 132.997 35.788L91.7574 140.486C90.4652 143.767 92.8835 147.319 96.4096 147.319H123.08C125.178 147.319 127.052 146.01 127.775 144.041L169.694 29.7563C169.896 29.2048 170 28.6219 170 28.0345V7.68115C170 4.91973 167.761 2.68115 165 2.68115H76.3003C73.5389 2.68115 71.3003 4.91973 71.3003 7.68116V28.0551Z" fill="white"/>
</svg>
