<svg width="167" height="150" viewBox="0 0 167 150" fill="none" xmlns="http://www.w3.org/2000/svg">
<path fill-rule="evenodd" clip-rule="evenodd" d="M0 150C7.32018 149.91 14.1594 148.603 20.5178 146.079C27.1109 143.324 32.8637 138.985 37.7763 133.062C42.6888 127.138 46.5025 119.424 49.2173 109.92C52.0614 100.277 53.4835 88.6373 53.4835 75V70.8675C53.4835 58.1945 52.0614 47.3811 49.2173 38.4273C46.5025 29.4736 42.6888 22.1728 37.7763 16.5251C32.8637 10.7395 27.1109 6.53816 20.5178 3.92091C14.1594 1.39687 7.32018 0.0898961 0 0V30.5985C2.28874 30.7284 4.47401 31.4095 6.5558 32.6418C9.01207 33.8816 11.0805 36.0856 12.7611 39.2538C14.571 42.4221 15.993 46.6235 17.0273 51.858C18.0615 56.9547 18.5786 63.2912 18.5786 70.8675V75C18.5786 83.6783 18.0615 90.9102 17.0273 96.6957C15.993 102.343 14.571 106.889 12.7611 110.333C11.0805 113.639 9.01207 115.981 6.5558 117.358C4.47401 118.591 2.28874 119.272 0 119.402V150ZM70.0421 33.0551H131.707L87.4945 147.319H124.339L167 28.9226V2.68115H70.0421V33.0551Z" fill="#03496A"/>
</svg>
