<svg width="170" height="150" viewBox="0 0 170 150" fill="none" xmlns="http://www.w3.org/2000/svg">
<path fill-rule="evenodd" clip-rule="evenodd" d="M0 149.969C6.43888 149.758 12.4751 148.459 18.1087 146.074C24.2906 143.32 29.6846 138.981 34.2907 133.058C38.8968 127.135 42.4726 119.421 45.0181 109.917C47.6848 100.275 49.0182 88.6364 49.0182 75V70.8678C49.0182 58.1956 47.6848 47.3829 45.0181 38.4298C42.4726 29.4766 38.8968 22.1763 34.2907 16.5289C29.6846 10.7438 24.2906 6.54271 18.1087 3.92563C12.4751 1.54068 6.43888 0.242432 0 0.030886V30.722C1.73826 30.9894 3.41079 31.6303 5.01758 32.6446C7.32064 33.8843 9.26006 36.0882 10.8358 39.2562C12.5328 42.4243 13.8662 46.6254 14.8359 51.8595C15.8056 56.9559 16.2905 63.292 16.2905 70.8678V75C16.2905 83.6777 15.8056 90.9091 14.8359 96.6942C13.8662 102.342 12.5328 106.887 10.8358 110.331C9.26006 113.636 7.32064 115.978 5.01758 117.355C3.41079 118.37 1.73826 119.011 0 119.278V149.969ZM97.999 147.107C104.302 149.036 111.333 150 119.09 150C126.848 150 133.878 149.036 140.181 147.107C146.485 145.041 151.818 142.149 156.182 138.43C160.667 134.711 164.061 130.234 166.364 125C168.788 119.628 170 113.636 170 107.025C170 98.4848 167.879 91.2534 163.636 85.3306C159.394 79.4077 153.091 75.0689 144.727 72.3141C151.151 69.697 156.363 65.6336 160.363 60.124C164.364 54.6143 166.364 47.9339 166.364 40.0826C166.364 34.1598 165.273 28.719 163.091 23.7603C161.03 18.8017 158 14.6006 154 11.157C150 7.57576 145.03 4.82094 139.09 2.89256C133.272 0.964187 126.605 0 119.09 0C111.575 0 104.848 0.964187 98.9081 2.89256C93.0898 4.82094 88.1807 7.57576 84.1806 11.157C80.1806 14.6006 77.0896 18.8017 74.9078 23.7603C72.8471 28.719 71.8168 34.1598 71.8168 40.0826C71.8168 47.9339 73.8168 54.6832 77.8169 60.3306C81.9382 65.978 87.1504 69.9725 93.4535 72.3141C85.0897 74.7934 78.7866 79.2011 74.5441 85.5372C70.3016 91.8733 68.1804 99.0358 68.1804 107.025C68.1804 113.636 69.3319 119.628 71.635 125C74.0593 130.234 77.4532 134.711 81.8169 138.43C86.3019 142.149 91.6959 145.041 97.999 147.107ZM133.999 117.149C130.605 120.041 125.636 121.488 119.09 121.488C112.908 121.488 107.999 120.041 104.363 117.149C100.848 114.118 99.0899 109.986 99.0899 104.752C99.0899 99.1047 101.029 94.697 104.908 91.5289C108.908 88.3609 113.636 86.2259 119.09 85.124C124.545 86.2259 129.212 88.3609 133.09 91.5289C137.09 94.697 139.09 99.1047 139.09 104.752C139.09 109.986 137.393 114.118 133.999 117.149ZM130.727 55.3719C127.575 57.989 123.696 59.7796 119.09 60.7438C114.605 59.6419 110.726 57.8512 107.454 55.3719C104.302 52.7548 102.726 48.8292 102.726 43.595C102.726 38.4986 104.181 34.7107 107.09 32.2314C109.999 29.7521 113.999 28.5124 119.09 28.5124C124.181 28.5124 128.181 29.8209 131.09 32.438C133.999 34.9174 135.454 38.6364 135.454 43.595C135.454 48.8292 133.878 52.7548 130.727 55.3719Z" fill="white"/>
</svg>
