<svg width="167" height="150" viewBox="0 0 167 150" fill="none" xmlns="http://www.w3.org/2000/svg">
<path fill-rule="evenodd" clip-rule="evenodd" d="M0 149.969C6.32525 149.758 12.255 148.459 17.7891 146.074C23.8619 143.32 29.1607 138.981 33.6856 133.058C38.2104 127.135 41.7231 119.421 44.2237 109.917C46.8433 100.275 48.1532 88.6364 48.1532 75V70.8678C48.1532 58.1956 46.8433 47.3829 44.2237 38.4298C41.7231 29.4766 38.2104 22.1763 33.6856 16.5289C29.1607 10.7438 23.8619 6.54271 17.7891 3.92563C12.255 1.54068 6.32525 0.242432 0 0.030886V30.722C1.70759 30.9894 3.3506 31.6303 4.92903 32.6446C7.19145 33.8843 9.09665 36.0882 10.6446 39.2562C12.3117 42.4243 13.6215 46.6254 14.5741 51.8595C15.5267 56.9559 16.003 63.292 16.003 70.8678V75C16.003 83.6777 15.5267 90.9091 14.5741 96.6942C13.6215 102.342 12.3117 106.887 10.6446 110.331C9.09665 113.636 7.19145 115.978 4.92903 117.355C3.3506 118.37 1.70759 119.011 0 119.278V149.969ZM96.2696 147.107C102.461 149.036 109.368 150 116.989 150C124.609 150 131.516 149.036 137.708 147.107C143.9 145.041 149.139 142.149 153.425 138.43C157.831 134.711 161.165 130.234 163.428 125C165.809 119.628 167 113.636 167 107.025C167 98.4848 164.916 91.2534 160.749 85.3306C156.581 79.4077 150.389 75.0689 142.173 72.3141C148.484 69.697 153.604 65.6336 157.534 60.124C161.463 54.6143 163.428 47.9339 163.428 40.0826C163.428 34.1598 162.356 28.719 160.213 23.7603C158.188 18.8017 155.212 14.6006 151.282 11.157C147.353 7.57576 142.471 4.82094 136.636 2.89256C130.92 0.964187 124.371 0 116.989 0C109.606 0 102.997 0.964187 97.1627 2.89256C91.4471 4.82094 86.6245 7.57576 82.6951 11.157C78.7656 14.6006 75.7292 18.8017 73.5859 23.7603C71.5616 28.719 70.5494 34.1598 70.5494 40.0826C70.5494 47.9339 72.5142 54.6832 76.4436 60.3306C80.4922 65.978 85.6124 69.9725 91.8043 72.3141C83.5881 74.7934 77.3962 79.2011 73.2286 85.5372C69.061 91.8733 66.9772 99.0358 66.9772 107.025C66.9772 113.636 68.1084 119.628 70.3708 125C72.7523 130.234 76.0864 134.711 80.3731 138.43C84.7789 142.149 90.0777 145.041 96.2696 147.107ZM131.635 117.149C128.301 120.041 123.419 121.488 116.989 121.488C110.916 121.488 106.093 120.041 102.521 117.149C99.0678 114.118 97.3413 109.986 97.3413 104.752C97.3413 99.1047 99.2465 94.697 103.057 91.5289C106.986 88.3609 111.63 86.2259 116.989 85.124C122.347 86.2259 126.931 88.3609 130.742 91.5289C134.671 94.697 136.636 99.1047 136.636 104.752C136.636 109.986 134.969 114.118 131.635 117.149ZM128.42 55.3719C125.324 57.989 121.513 59.7796 116.989 60.7438C112.583 59.6419 108.772 57.8512 105.557 55.3719C102.461 52.7548 100.914 48.8292 100.914 43.595C100.914 38.4986 102.342 34.7107 105.2 32.2314C108.058 29.7521 111.987 28.5124 116.989 28.5124C121.99 28.5124 125.919 29.8209 128.777 32.438C131.635 34.9174 133.064 38.6364 133.064 43.595C133.064 48.8292 131.516 52.7548 128.42 55.3719Z" fill="#03496A"/>
</svg>
