<svg width="57" height="57" viewBox="0 0 57 57" fill="none" xmlns="http://www.w3.org/2000/svg">
<path fill-rule="evenodd" clip-rule="evenodd" d="M16.6813 0.527973C15.8267 0.899251 15.5639 1.44977 15.5639 2.86877V3.91009L11.418 3.91197C6.67598 3.91417 6.22692 3.96671 4.63324 4.70485C2.68282 5.60821 1.1403 7.47851 0.68607 9.49074C0.426258 10.6418 0.426258 50.155 0.68607 51.3061C1.27944 53.9345 3.65527 56.1639 6.45627 56.7207C7.68288 56.9645 49.7908 56.9645 51.0174 56.7207C53.8184 56.1639 56.1942 53.9345 56.7876 51.3061C57.0474 50.155 57.0474 10.6418 56.7876 9.49074C56.3333 7.47851 54.7908 5.60821 52.8404 4.70485C51.2473 3.96693 50.7966 3.91417 46.066 3.91197L41.9305 3.91009L41.8907 2.70377C41.8477 1.40021 41.7455 1.15453 41.0411 0.661077C40.5857 0.342003 39.47 0.342003 39.0146 0.661077C38.3102 1.15453 38.208 1.40021 38.1651 2.70377L38.1252 3.91009H28.7368H19.3484L19.3086 2.70377C19.2659 1.40694 19.162 1.15354 18.4764 0.673218C18.0867 0.400167 17.15 0.324344 16.6813 0.527973ZM15.583 8.64819C15.6259 9.95174 15.7281 10.1974 16.4325 10.6909C16.8879 11.01 18.0036 11.01 18.459 10.6909C19.1634 10.1974 19.2656 9.95174 19.3086 8.64819L19.3484 7.44187H28.7368H38.1252L38.1651 8.64819C38.1984 9.65772 38.2444 9.90428 38.4474 10.1589C38.8307 10.6401 39.2542 10.8832 39.8122 10.9422C40.4949 11.0145 41.0852 10.7738 41.512 10.2494C41.8295 9.85903 41.8534 9.75716 41.8909 8.63218L41.9308 7.4316L46.1251 7.46427L50.3192 7.49705L50.9762 7.78621C51.8114 8.15374 52.4422 8.74564 52.8338 9.52937C53.1283 10.1185 53.1436 10.2425 53.1802 12.3256L53.2184 14.5054H28.7456H4.27286V12.5389C4.27286 10.3538 4.37895 9.81599 4.97691 8.96881C5.39868 8.37127 6.05309 7.92064 6.89568 7.64737C7.43683 7.47189 7.97045 7.44871 11.5253 7.44551L15.5431 7.44187L15.583 8.64819ZM53.1729 34.3441L53.142 50.6509L52.8338 51.2674C52.4422 52.0512 51.8114 52.6431 50.9762 53.0106L50.3192 53.2998H28.7368H7.15444L6.49744 53.0106C5.66225 52.6431 5.03148 52.0512 4.63982 51.2674L4.33167 50.6509L4.30074 34.3441L4.2698 18.0372H28.7368H53.2038L53.1729 34.3441ZM10.6594 25.3024C9.81136 25.5827 9.1606 26.0327 8.73859 26.6306C8.09959 27.5358 8.0155 28.0319 8.0576 30.6468C8.09406 32.9096 8.10618 33.0137 8.40351 33.6086C8.79517 34.3923 9.42594 34.9842 10.2611 35.3517C10.9115 35.638 10.9458 35.6409 13.6821 35.6409C16.4184 35.6409 16.4526 35.638 17.103 35.3517C17.9382 34.9842 18.569 34.3923 18.9606 33.6086C19.2657 32.9982 19.2688 32.9661 19.2688 30.3984C19.2688 27.8307 19.2657 27.7986 18.9606 27.1882C18.569 26.4045 17.9382 25.8126 17.103 25.4451C16.4643 25.164 16.3741 25.1552 13.8585 25.1281C11.6016 25.1038 11.1929 25.126 10.6594 25.3024ZM25.7141 25.3024C24.8661 25.5827 24.2153 26.0327 23.7933 26.6306C23.1543 27.5358 23.0702 28.0319 23.1123 30.6468C23.1488 32.9096 23.1609 33.0137 23.4583 33.6086C23.8499 34.3923 24.4807 34.9842 25.3159 35.3517C25.9663 35.638 26.0005 35.6409 28.7368 35.6409C31.4731 35.6409 31.5074 35.638 32.1578 35.3517C32.993 34.9842 33.6237 34.3923 34.0154 33.6086C34.3205 32.9982 34.3235 32.9661 34.3235 30.3984C34.3235 27.8307 34.3205 27.7986 34.0154 27.1882C33.6237 26.4045 32.993 25.8126 32.1578 25.4451C31.519 25.164 31.4288 25.1552 28.9132 25.1281C26.6563 25.1038 26.2476 25.126 25.7141 25.3024ZM40.7689 25.3024C39.9208 25.5827 39.2701 26.0327 38.8481 26.6306C38.2091 27.5358 38.125 28.0319 38.1671 30.6468C38.2035 32.9096 38.2157 33.0137 38.513 33.6086C38.9047 34.3923 39.5354 34.9842 40.3706 35.3517C41.021 35.638 41.0552 35.6409 43.7916 35.6409C46.5279 35.6409 46.5621 35.638 47.2125 35.3517C48.0477 34.9842 48.6785 34.3923 49.0701 33.6086C49.3752 32.9982 49.3783 32.9661 49.3783 30.3984C49.3783 27.8307 49.3752 27.7986 49.0701 27.1882C48.6785 26.4045 48.0477 25.8126 47.2125 25.4451C46.5738 25.164 46.4835 25.1552 43.968 25.1281C41.7111 25.1038 41.3024 25.126 40.7689 25.3024ZM15.5639 30.3984V32.1643H13.6821H11.8002V30.3984V28.6325H13.6821H15.5639V30.3984ZM30.6187 30.3984V32.1643H28.7368H26.855V30.3984V28.6325H28.7368H30.6187V30.3984ZM45.6734 30.3984V32.1643H43.7916H41.9097V30.3984V28.6325H43.7916H45.6734V30.3984ZM10.6594 39.4295C9.81136 39.7098 9.1606 40.1598 8.73859 40.7577C8.09959 41.6629 8.0155 42.159 8.0576 44.7739C8.09406 47.0367 8.10618 47.1408 8.40351 47.7357C8.79517 48.5194 9.42594 49.1113 10.2611 49.4788C10.9115 49.7651 10.9458 49.768 13.6821 49.768C16.4184 49.768 16.4526 49.7651 17.103 49.4788C17.9382 49.1113 18.569 48.5194 18.9606 47.7357C19.2657 47.1253 19.2688 47.0932 19.2688 44.5255C19.2688 41.9578 19.2657 41.9257 18.9606 41.3153C18.569 40.5316 17.9382 39.9397 17.103 39.5722C16.4643 39.2911 16.3741 39.2823 13.8585 39.2552C11.6016 39.2309 11.1929 39.2531 10.6594 39.4295ZM25.7141 39.4295C24.8661 39.7098 24.2153 40.1598 23.7933 40.7577C23.1543 41.6629 23.0702 42.159 23.1123 44.7739C23.1488 47.0367 23.1609 47.1408 23.4583 47.7357C23.8499 48.5194 24.4807 49.1113 25.3159 49.4788C25.9663 49.7651 26.0005 49.768 28.7368 49.768C31.4731 49.768 31.5074 49.7651 32.1578 49.4788C32.993 49.1113 33.6237 48.5194 34.0154 47.7357C34.3205 47.1253 34.3235 47.0932 34.3235 44.5255C34.3235 41.9578 34.3205 41.9257 34.0154 41.3153C33.6237 40.5316 32.993 39.9397 32.1578 39.5722C31.519 39.2911 31.4288 39.2823 28.9132 39.2552C26.6563 39.2309 26.2476 39.2531 25.7141 39.4295ZM40.7689 39.4295C39.9208 39.7098 39.2701 40.1598 38.8481 40.7577C38.2091 41.6629 38.125 42.159 38.1671 44.7739C38.2035 47.0367 38.2157 47.1408 38.513 47.7357C38.9047 48.5194 39.5354 49.1113 40.3706 49.4788C41.021 49.7651 41.0552 49.768 43.7916 49.768C46.5279 49.768 46.5621 49.7651 47.2125 49.4788C48.0477 49.1113 48.6785 48.5194 49.0701 47.7357C49.3752 47.1253 49.3783 47.0932 49.3783 44.5255C49.3783 41.9578 49.3752 41.9257 49.0701 41.3153C48.6785 40.5316 48.0477 39.9397 47.2125 39.5722C46.5738 39.2911 46.4835 39.2823 43.968 39.2552C41.7111 39.2309 41.3024 39.2531 40.7689 39.4295ZM15.5639 44.5255V46.2914H13.6821H11.8002V44.5255V42.7596H13.6821H15.5639V44.5255ZM30.6187 44.5255V46.2914H28.7368H26.855V44.5255V42.7596H28.7368H30.6187V44.5255ZM45.6734 44.5255V46.2914H43.7916H41.9097V44.5255V42.7596H43.7916H45.6734V44.5255Z" fill="#008DD2"/>
</svg>
