<svg width="57" height="58" viewBox="0 0 57 58" fill="none" xmlns="http://www.w3.org/2000/svg">
<path fill-rule="evenodd" clip-rule="evenodd" d="M26.639 0.605893C22.4545 1.00683 19.3422 1.89226 15.8187 3.68421C11.6447 5.80677 7.89917 9.16327 5.16814 13.2284C4.699 13.9266 3.90028 15.3423 3.39305 16.3745C1.54675 20.1312 0.658928 23.6667 0.509762 27.8549C0.342157 32.5629 1.31047 37.0436 3.40553 41.2554C4.8814 44.2224 6.39779 46.3213 8.80145 48.7246C11.2316 51.1541 13.3405 52.6713 16.3155 54.1305C18.3914 55.1486 19.7317 55.6441 21.8361 56.1719C27.3582 57.5567 32.8966 57.2911 38.2917 55.3829C39.9383 54.8006 42.7929 53.369 44.2497 52.3949C50.4329 48.2606 54.7553 41.9921 56.3375 34.8647C56.7061 33.2042 56.8954 31.6523 56.9639 29.7316C57.1315 25.0236 56.1632 20.5429 54.0681 16.3311C52.6924 13.5655 51.1609 11.398 49.0105 9.17332C46.6417 6.72245 44.2611 4.98967 41.1581 3.4578C37.886 1.84225 34.8394 0.980223 31.2211 0.645964C30.0962 0.542088 27.539 0.519679 26.639 0.605893ZM32.6564 4.38938C39.6574 5.56557 45.5691 9.42445 49.4752 15.3677C51.346 18.2143 52.6264 21.5864 53.2107 25.2056C53.4839 26.8991 53.4839 30.6874 53.2107 32.3809C52.0209 39.7516 47.9857 45.8718 41.7102 49.8237C39.023 51.516 35.7851 52.7021 32.3252 53.2617C30.6254 53.5366 26.8406 53.5358 25.1484 53.2603C17.8952 52.0794 11.9209 48.2193 7.95305 42.1504C6.10045 39.3167 4.84982 36.0053 4.26343 32.3809C3.98938 30.6865 3.98938 26.9 4.26343 25.2056C5.14992 19.7263 7.45521 15.1728 11.2827 11.3407C15.4436 7.17483 20.8063 4.67606 26.7494 4.13394C27.9438 4.02498 31.3688 4.17312 32.6564 4.38938ZM28.0191 9.02363C27.8977 9.07772 27.6811 9.23337 27.5378 9.36937C26.9569 9.92076 26.9702 9.69303 26.9702 19.0644V27.7778L22.4158 30.4004C19.9109 31.8429 17.6956 33.1451 17.4931 33.2944C16.7552 33.8378 16.5154 34.646 16.8526 35.4529C17.1974 36.278 18.2363 36.7127 19.0503 36.3727C19.6429 36.1252 29.6317 30.3479 29.938 30.0755C30.5186 29.5592 30.5034 29.8379 30.5034 19.7413C30.5034 9.48406 30.5327 9.9541 29.8546 9.3166C29.5698 9.04869 29.3997 8.98665 28.875 8.95883C28.5257 8.9404 28.1406 8.96954 28.0191 9.02363Z" fill="#008DD2"/>
</svg>
