<svg width="57" height="58" viewBox="0 0 57 58" fill="none" xmlns="http://www.w3.org/2000/svg">
<path fill-rule="evenodd" clip-rule="evenodd" d="M25.1814 1.0459C24.6042 1.12151 23.6924 1.26732 23.1552 1.36975C22.618 1.47219 21.5834 1.72716 20.8561 1.93633C20.1287 2.14551 19.0047 2.52334 18.3582 2.77589C17.7117 3.02844 16.5602 3.55451 15.7993 3.94481C15.0382 4.33511 13.992 4.93017 13.4741 5.26716C12.9562 5.60404 12.0603 6.23189 11.4831 6.66226C10.9058 7.09263 9.66173 8.21597 8.71842 9.1585C7.77511 10.101 6.65084 11.3441 6.22001 11.9209C5.78928 12.4976 5.14789 13.4165 4.79493 13.9629C4.44187 14.5093 3.81981 15.6118 3.41261 16.4129C3.00531 17.2139 2.43793 18.5046 2.15181 19.2809C1.86569 20.0573 1.46523 21.3408 1.26197 22.1331C1.0587 22.9255 0.802186 24.1433 0.691826 24.8393C0.533521 25.8376 0.491211 26.7454 0.491211 29.1402C0.491211 31.535 0.533521 32.4427 0.691826 33.441C0.802186 34.1371 1.05859 35.3543 1.26175 36.1461C1.46479 36.9379 1.83973 38.1566 2.09503 38.8543C2.35021 39.5521 2.87639 40.7687 3.26447 41.5579C3.65244 42.3471 4.28599 43.4963 4.67242 44.1117C5.05874 44.7271 5.73504 45.7072 6.17516 46.2897C6.61527 46.8723 7.52555 47.9245 8.19799 48.6281C8.87042 49.3317 9.89703 50.3061 10.4794 50.7935C11.0618 51.281 11.9857 51.9907 12.5325 52.3705C13.0794 52.7505 14.0012 53.3385 14.5811 53.6772C15.1611 54.0159 16.1243 54.5196 16.7216 54.7967C17.3189 55.0736 18.3553 55.5017 19.0247 55.7477C19.694 55.9939 20.816 56.3432 21.5179 56.524C22.2199 56.7048 23.3935 56.9564 24.1259 57.0831C25.1174 57.2544 26.1243 57.3273 28.0669 57.3678C30.1125 57.4106 30.9956 57.3822 32.1544 57.2366C32.9673 57.1345 34.2041 56.9254 34.9029 56.7717C35.6016 56.6182 36.8363 56.2726 37.6468 56.0039C38.4573 55.7351 39.7095 55.248 40.4296 54.9214C41.1498 54.5947 42.2267 54.0426 42.8226 53.6943C43.4186 53.3462 44.3537 52.7505 44.9005 52.3705C45.4473 51.9907 46.367 51.2836 46.9442 50.7994C47.5214 50.3152 48.4668 49.4286 49.0451 48.8291C49.6233 48.2296 50.3978 47.3667 50.7662 46.9114C51.1345 46.456 51.7109 45.6861 52.047 45.2005C52.3831 44.7148 52.9354 43.8433 53.2741 43.264C53.6129 42.6845 54.1168 41.7221 54.3941 41.1252C54.6713 40.5284 55.0923 39.5124 55.3295 38.8673C55.5668 38.2224 55.8877 37.2228 56.0427 36.646C56.1976 36.0693 56.4214 35.1007 56.54 34.4936C56.6587 33.8865 56.8159 32.8356 56.8896 32.1582C56.9753 31.3694 57.0031 30.02 56.967 28.4053C56.9332 26.8977 56.8392 25.4452 56.7332 24.7927C56.6358 24.1925 56.4022 23.0749 56.214 22.3092C56.0259 21.5434 55.649 20.296 55.3765 19.5371C55.104 18.7782 54.5356 17.4559 54.1134 16.5985C53.6912 15.7411 52.9121 14.3905 52.382 13.5971C51.852 12.8038 51.0025 11.6545 50.4942 11.0432C49.9859 10.432 48.9765 9.3637 48.2512 8.6693C47.5258 7.97501 46.4006 7.0083 45.7507 6.52119C45.1008 6.03409 43.9325 5.25557 43.1546 4.7911C42.3767 4.32651 41.1544 3.68189 40.4385 3.35847C39.7225 3.03506 38.47 2.54939 37.655 2.27918C36.8401 2.00896 35.5996 1.66061 34.8985 1.50519C34.1973 1.34978 33.0056 1.14612 32.2505 1.05274C31.3644 0.943135 30.0531 0.887393 28.5541 0.895561C27.2763 0.902625 25.7587 0.970288 25.1814 1.0459ZM31.9202 4.48192C32.6189 4.57398 33.638 4.74794 34.1848 4.86836C34.7316 4.9889 35.8463 5.30955 36.6619 5.58109C37.4774 5.85262 38.7948 6.39392 39.5894 6.78401C40.3839 7.1742 41.556 7.83516 42.194 8.25295C42.8319 8.67062 43.7462 9.32529 44.2255 9.70753C44.705 10.0899 45.4945 10.7816 45.9801 11.2446C46.4659 11.7076 47.2595 12.5583 47.7439 13.1351C48.2283 13.7118 49.0186 14.7764 49.5002 15.5009C49.9817 16.2255 50.671 17.4176 51.0321 18.1501C51.3931 18.8825 51.8877 20.0401 52.1311 20.7224C52.3745 21.4045 52.703 22.4724 52.8611 23.0955C53.0192 23.7185 53.2438 24.874 53.36 25.6632C53.5089 26.6735 53.5715 27.7024 53.5715 29.1402C53.5715 30.578 53.5089 31.6068 53.36 32.6171C53.2438 33.4064 53.0192 34.5618 52.8611 35.1848C52.703 35.8079 52.3745 36.8758 52.1311 37.558C51.8877 38.2402 51.3931 39.3978 51.0321 40.1303C50.671 40.8628 49.9817 42.0549 49.5002 42.7794C49.0186 43.5039 48.2283 44.5685 47.7439 45.1453C47.2595 45.722 46.4659 46.5727 45.9801 47.0358C45.4945 47.4987 44.705 48.1904 44.2255 48.5728C43.7462 48.9551 42.8319 49.6094 42.194 50.0268C41.556 50.4442 40.4375 51.0771 39.7084 51.4334C38.9793 51.7896 37.8897 52.2629 37.2871 52.4852C36.6843 52.7075 35.6404 53.0345 34.9672 53.2119C34.2938 53.3892 33.0534 53.6356 32.2106 53.7595C31.0975 53.923 30.1302 53.9837 28.6755 53.9815C27.2716 53.9794 26.2377 53.914 25.2173 53.7627C24.4169 53.6439 23.2735 53.423 22.6765 53.2719C22.0795 53.1207 21.1437 52.8395 20.5969 52.6469C20.0501 52.4544 19.0786 52.0639 18.4381 51.7791C17.7976 51.4943 16.7409 50.9443 16.0899 50.5568C15.4389 50.1693 14.3722 49.4535 13.7194 48.9662C13.0667 48.4789 11.9089 47.4571 11.1468 46.6955C10.3845 45.9339 9.36191 44.7772 8.87418 44.1249C8.38645 43.4727 7.67005 42.4069 7.2823 41.7564C6.89443 41.1059 6.34396 40.0501 6.05894 39.4102C5.77393 38.7702 5.38308 37.7995 5.19042 37.2531C4.99765 36.7067 4.71628 35.7717 4.56493 35.1752C4.4137 34.5787 4.19353 33.4363 4.07577 32.6365C3.92398 31.6062 3.86157 30.5868 3.86157 29.1402C3.86157 27.6935 3.92398 26.6742 4.07577 25.6439C4.19353 24.8441 4.4137 23.7016 4.56493 23.1051C4.71628 22.5086 4.99765 21.5736 5.19042 21.0272C5.38308 20.4809 5.77393 19.5102 6.05894 18.8702C6.34396 18.2302 6.89443 17.1744 7.2823 16.5239C7.67005 15.8735 8.3701 14.8325 8.83784 14.2106C9.30568 13.5887 10.1243 12.6177 10.6571 12.0528C11.1898 11.4879 12.1031 10.6258 12.6868 10.137C13.2703 9.64826 14.3409 8.85474 15.0661 8.37359C15.7912 7.89244 16.9843 7.20367 17.7174 6.84295C18.4505 6.48223 19.622 5.98342 20.3207 5.73451C21.0195 5.48561 22.0634 5.16308 22.6406 5.01782C23.2178 4.87244 24.1872 4.67222 24.7948 4.57265C25.4024 4.47309 26.5209 4.35973 27.2804 4.32054C28.0399 4.28147 29.1087 4.26403 29.6555 4.28191C30.2023 4.29979 31.2214 4.38975 31.9202 4.48192ZM22.6959 15.1638C22.5136 15.2467 22.2514 15.437 22.1132 15.5868C21.975 15.7366 21.8135 16.0282 21.7542 16.2349C21.6897 16.4596 21.6464 19.1504 21.6464 22.9305V29.2505L20.4588 29.251C19.4617 29.2513 19.2125 29.2872 18.9047 29.4746C18.678 29.6128 18.452 29.8925 18.3124 30.208C18.1593 30.5539 18.1047 30.8532 18.143 31.1381C18.1739 31.3692 18.3077 31.7103 18.4402 31.8961C18.5727 32.082 18.8388 32.3161 19.0314 32.4164C19.2636 32.5372 19.7634 32.6159 20.514 32.6499L21.6464 32.7013V34.5081V36.3149H20.5291C19.5851 36.3149 19.3453 36.3523 18.9825 36.5559C18.7003 36.7145 18.4729 36.9629 18.3188 37.281C18.1477 37.634 18.1007 37.8872 18.1449 38.2169C18.1783 38.4655 18.2993 38.7943 18.4139 38.9477C18.5283 39.1009 18.7592 39.3287 18.9268 39.4539C19.1813 39.644 19.4283 39.6875 20.4304 39.7186L21.6294 39.7558L21.6655 41.8356C21.6984 43.7323 21.7217 43.9424 21.9294 44.2201C22.0547 44.3875 22.2871 44.6215 22.4459 44.74C22.6047 44.8584 22.9745 44.976 23.2676 45.0012C23.639 45.0332 23.917 44.9868 24.185 44.8478C24.3964 44.7382 24.6823 44.4798 24.8202 44.2735C25.0587 43.9167 25.071 43.797 25.071 41.8216V39.7447L28.9847 39.713C32.73 39.6828 32.912 39.6718 33.2102 39.455C33.3817 39.3303 33.6384 38.9966 33.7808 38.713C33.985 38.3064 34.0235 38.1029 33.9638 37.749C33.922 37.5025 33.7624 37.1516 33.6089 36.9693C33.4555 36.7872 33.1893 36.5653 33.0173 36.4765C32.7603 36.3438 32.0227 36.3149 28.8877 36.3149H25.071V34.5053V32.6957L29.2965 32.6448C33.1591 32.5984 33.5979 32.5739 34.4058 32.3593C34.8918 32.2301 35.7618 31.8891 36.339 31.6014C37.2072 31.1686 37.5621 30.9061 38.3939 30.0816C39.0028 29.478 39.5776 28.7802 39.8512 28.3123C40.0998 27.8874 40.4284 27.164 40.5815 26.7049C40.7346 26.2458 40.9177 25.5007 40.9883 25.0492C41.0623 24.5756 41.0875 23.8312 41.0477 23.29C41.0098 22.774 40.9024 22.0289 40.8091 21.6343C40.7159 21.2397 40.4207 20.4698 40.1531 19.9234C39.8857 19.3771 39.414 18.6208 39.1049 18.2429C38.7958 17.865 38.2335 17.3031 37.8552 16.9943C37.477 16.6854 36.7201 16.2154 36.1733 15.9497C35.6265 15.6842 34.8808 15.3803 34.5162 15.2747C33.9347 15.1061 33.1893 15.0782 28.4403 15.0478C24.045 15.0197 22.965 15.0414 22.6959 15.1638ZM33.2584 18.5436C33.5856 18.6042 34.2085 18.8278 34.6425 19.0405C35.1298 19.2793 35.6673 19.6626 36.0477 20.0428C36.408 20.4028 36.821 20.9722 37.0423 21.4142C37.2505 21.8299 37.4841 22.5242 37.5615 22.9571C37.6722 23.5758 37.6745 23.9227 37.5724 24.5787C37.4989 25.051 37.291 25.7309 37.0935 26.1452C36.8674 26.6193 36.5008 27.121 36.0536 27.5684C35.5761 28.0461 35.113 28.3776 34.5529 28.6424C34.072 28.8696 33.4288 29.0701 32.9696 29.1358C32.5443 29.1965 30.5932 29.2471 28.6337 29.2483L25.071 29.2505V23.8419V18.4333H28.8672C30.955 18.4333 32.9311 18.4829 33.2584 18.5436Z" fill="#008DD2"/>
</svg>
