<svg width="133" height="133" viewBox="0 0 133 133" fill="none" xmlns="http://www.w3.org/2000/svg">
<path d="M133 66.5C133 103.227 103.227 133 66.5 133C29.7731 133 0 103.227 0 66.5C0 29.7731 29.7731 0 66.5 0C103.227 0 133 29.7731 133 66.5ZM23.0679 66.5C23.0679 90.4869 42.5131 109.932 66.5 109.932C90.4869 109.932 109.932 90.4869 109.932 66.5C109.932 42.5131 90.4869 23.0679 66.5 23.0679C42.5131 23.0679 23.0679 42.5131 23.0679 66.5Z" fill="#008DD2"/>
<path d="M115.953 72.0649C116.031 71.2853 116.229 70.5713 116.547 69.9228C116.874 69.2848 117.298 68.7442 117.819 68.3008C118.339 67.8575 118.932 67.5282 119.595 67.313C120.257 67.1075 120.968 67.043 121.729 67.1196C122.489 67.1961 123.173 67.4011 123.781 67.7345C124.388 68.0776 124.903 68.5182 125.325 69.0566C125.747 69.6045 126.049 70.2231 126.233 70.9124C126.426 71.6026 126.483 72.3423 126.403 73.1315C126.315 74.0073 126.082 74.781 125.703 75.4526C125.333 76.1348 124.831 76.6869 124.195 77.109L122.96 75.4681C123.39 75.1614 123.722 74.8059 123.957 74.4018C124.202 73.9987 124.349 73.5469 124.399 73.0465C124.447 72.5749 124.413 72.134 124.299 71.7239C124.185 71.3138 123.998 70.9499 123.738 70.6321C123.478 70.3143 123.159 70.0537 122.781 69.8504C122.402 69.6567 121.972 69.5356 121.491 69.4871C121.009 69.4387 120.564 69.4716 120.154 69.5859C119.743 69.7098 119.378 69.9015 119.061 70.1612C118.743 70.4209 118.487 70.7402 118.294 71.1193C118.1 71.4984 117.979 71.9238 117.932 72.3954C117.882 72.8958 117.932 73.3675 118.081 73.8103C118.241 74.2541 118.505 74.6696 118.875 75.0568L117.338 76.4187C116.799 75.8784 116.412 75.2366 116.175 74.4934C115.938 73.7598 115.864 72.9503 115.953 72.0649Z" fill="white"/>
<path d="M115.768 76.4522L124.087 83.8334L123.388 86.047L112.336 87.3127L113.08 84.9608L122.747 84.1246L122.468 85.0101L115.042 78.7488L115.768 76.4522ZM117.161 79.2672L118.674 80.4006L117.101 85.3812L115.207 85.4515L117.161 79.2672Z" fill="white"/>
<path d="M112.169 87.4021L120.968 92.4744L119.803 94.4991L114.071 91.1949L117.386 98.6994L116.287 100.611L107.487 95.5387L108.645 93.5266L114.365 96.8235L111.062 89.3262L112.169 87.4021Z" fill="white"/>
<path d="M102.111 101.751L107.864 102.64L107.457 104.823L100.337 103.747L102.111 101.751ZM106.498 96.8181L114.081 103.574L112.529 105.319L104.945 98.5637L106.498 96.8181ZM108.454 100.776L109.916 102.078L107.564 104.724L106.101 103.421L108.454 100.776ZM106.402 104.175L108.033 102.733L109.637 108.572L107.988 110.426L106.402 104.175Z" fill="white"/>
<path d="M98.0481 105.397L103.414 112.345L102.661 112.248L105.645 109.94L106.815 111.456L99.8498 116.845L98.6791 115.329L101.663 113.021L101.578 113.765L96.212 106.818L98.0481 105.397Z" fill="white"/>
<path d="M84.9833 112.906C85.7071 112.606 86.4298 112.442 87.1515 112.415C87.8679 112.401 88.5445 112.518 89.1815 112.767C89.8184 113.016 90.3885 113.382 90.8917 113.865C91.386 114.351 91.7793 114.947 92.0715 115.653C92.3637 116.359 92.5067 117.059 92.5006 117.753C92.4856 118.45 92.3409 119.112 92.0664 119.739C91.783 120.369 91.3811 120.929 90.8607 121.417C90.344 121.914 89.7193 122.314 88.9866 122.618C88.1735 122.955 87.3816 123.115 86.611 123.1C85.8351 123.097 85.1109 122.915 84.4386 122.555L85.2999 120.691C85.7732 120.924 86.2434 121.048 86.7106 121.064C87.1814 121.089 87.6491 121.005 88.1138 120.812C88.5516 120.63 88.9241 120.392 89.2313 120.097C89.5385 119.803 89.7706 119.465 89.9277 119.086C90.0848 118.707 90.1635 118.303 90.1638 117.873C90.1551 117.447 90.0583 117.011 89.8734 116.564C89.6884 116.117 89.4487 115.74 89.154 115.433C88.8505 115.13 88.5092 114.899 88.1302 114.742C87.7512 114.585 87.3489 114.511 86.9234 114.52C86.4978 114.529 86.0662 114.624 85.6283 114.806C85.1637 114.998 84.7718 115.266 84.4526 115.607C84.1371 115.958 83.8962 116.388 83.7298 116.896L81.8033 116.187C82.0245 115.457 82.4065 114.812 82.9493 114.251C83.4833 113.695 84.1613 113.246 84.9833 112.906Z" fill="white"/>
<path d="M81.0057 114.795L78.419 125.611L76.1371 126.038L69.8099 116.888L72.2344 116.435L77.5304 124.567L76.6177 124.737L78.6381 115.238L81.0057 114.795ZM79.18 117.35L78.8941 119.219L73.7598 120.179L72.8048 118.542L79.18 117.35Z" fill="white"/>
<path d="M69.528 116.76L69.2148 126.911L66.8799 126.839L67.084 120.226L62.0361 126.689L59.8318 126.621L60.1451 116.47L62.4654 116.541L62.2618 123.14L67.3092 116.691L69.528 116.76Z" fill="white"/>
<path d="M52.1241 114.624L54.0457 120.122L51.9286 120.787L49.5298 113.994L52.1241 114.624ZM58.5393 116.182L56.1463 126.052L53.8763 125.501L56.2693 115.63L58.5393 116.182ZM55.9679 119.768L55.5064 121.671L52.0662 120.836L52.5277 118.932L55.9679 119.768ZM52.0043 119.552L54.0436 120.316L49.6465 124.474L47.2355 123.888L52.0043 119.552Z" fill="white"/>
<path d="M47.0469 112.747L43.4202 120.741L43.1533 120.03L46.5876 121.59L45.7963 123.335L37.7785 119.691L38.5698 117.946L42.0041 119.507L41.3068 119.78L44.9335 111.786L47.0469 112.747Z" fill="white"/>
<path d="M34.3391 104.713C34.9427 105.213 35.4252 105.775 35.7867 106.401C36.1346 107.028 36.3476 107.681 36.4258 108.361C36.504 109.041 36.4479 109.717 36.2574 110.388C36.0595 111.053 35.7172 111.68 35.2305 112.269C34.7438 112.858 34.1929 113.312 33.5776 113.632C32.9549 113.945 32.3026 114.127 31.6207 114.178C30.9313 114.223 30.2495 114.129 29.5751 113.898C28.8946 113.674 28.2488 113.309 27.6377 112.803C26.9596 112.242 26.4471 111.617 26.1002 110.928C25.7398 110.24 25.5611 109.515 25.5643 108.752L27.6139 108.64C27.6296 109.168 27.7398 109.642 27.9445 110.062C28.143 110.49 28.436 110.865 28.8235 111.185C29.1887 111.487 29.5733 111.705 29.9774 111.839C30.3815 111.972 30.7877 112.02 31.1961 111.981C31.6045 111.942 31.9983 111.822 32.3775 111.622C32.7494 111.414 33.0893 111.124 33.3973 110.752C33.7053 110.379 33.926 109.99 34.0593 109.586C34.1852 109.175 34.2288 108.765 34.19 108.357C34.1513 107.948 34.0284 107.558 33.8215 107.185C33.6145 106.813 33.3284 106.476 32.9633 106.174C32.5758 105.853 32.1565 105.632 31.7054 105.51C31.2481 105.395 30.756 105.383 30.229 105.474L29.9535 103.438C30.7019 103.292 31.4504 103.327 32.199 103.545C32.9401 103.757 33.6535 104.146 34.3391 104.713Z" fill="white"/>
<path d="M30.7915 102.079L20.0312 104.869L18.5855 103.052L23.6987 93.1672L25.2347 95.0971L20.5368 103.593L19.9585 102.867L29.2916 100.194L30.7915 102.079ZM27.6803 101.665L25.8964 102.289L22.6436 98.2022L23.6415 96.5901L27.6803 101.665Z" fill="white"/>
<path d="M23.7614 93.0472L14.6609 97.5566L13.6252 95.4627L19.5536 92.5252L11.4767 91.119L10.4989 89.1422L19.5994 84.6329L20.6287 86.7137L14.7133 89.6448L22.7772 91.0574L23.7614 93.0472Z" fill="white"/>
<path d="M17.4594 76.7755L13.5179 81.0639L11.9324 79.5111L16.7911 74.1908L17.4594 76.7755ZM19.1121 83.1669L9.28017 85.7138L8.69537 83.4522L18.5273 80.9053L19.1121 83.1669ZM14.7372 82.5916L12.841 83.0827L11.9547 79.6552L13.8509 79.164L14.7372 82.5916ZM13.0578 78.9948L13.3462 81.1533L7.60568 79.238L6.98456 76.8359L13.0578 78.9948Z" fill="white"/>
<path d="M16.6939 71.3307L7.93476 71.9065L8.43529 71.3356L8.68231 75.0999L6.77122 75.2255L6.19452 66.4373L8.10561 66.3117L8.35263 70.076L7.78275 69.59L16.5419 69.0142L16.6939 71.3307Z" fill="white"/>
<path d="M17.774 56.1164C17.6156 56.8838 17.3448 57.5735 16.9617 58.1857C16.571 58.7864 16.0937 59.2804 15.5298 59.6675C14.9659 60.0547 14.3431 60.3209 13.6612 60.4664C12.9812 60.6023 12.2671 60.5929 11.5188 60.4382C10.7705 60.2834 10.1111 60.0088 9.54069 59.6143C8.97222 59.2102 8.50578 58.7187 8.14137 58.1396C7.77892 57.551 7.54202 56.9044 7.43067 56.1998C7.30985 55.4933 7.32962 54.7516 7.48998 53.9749C7.66794 53.1128 7.97985 52.3674 8.42572 51.7385C8.86408 51.0982 9.42106 50.601 10.0966 50.2469L11.1556 52.0067C10.6968 52.2674 10.3297 52.5866 10.0542 52.9643C9.76924 53.3399 9.57592 53.7741 9.47422 54.2667C9.3784 54.7309 9.36618 55.1728 9.43756 55.5925C9.50894 56.0123 9.65738 56.3936 9.88288 56.7366C10.1084 57.0796 10.3987 57.3717 10.7538 57.6131C11.1109 57.845 11.5262 58.0099 11.9999 58.1078C12.4735 58.2058 12.9201 58.2191 13.3398 58.1478C13.7614 58.0671 14.1436 57.914 14.4865 57.6886C14.8293 57.4632 15.1166 57.172 15.3483 56.8149C15.5801 56.4579 15.7438 56.0472 15.8397 55.5831C15.9413 55.0905 15.9405 54.6162 15.8371 54.1602C15.7242 53.7022 15.5041 53.2616 15.1766 52.8383L16.8457 51.6426C17.3257 52.2357 17.645 52.9141 17.8034 53.6778C17.9637 54.432 17.9539 55.2449 17.774 56.1164Z" fill="white"/>
<path d="M18.4039 51.7694L10.9046 43.5556L11.8321 41.4275L22.9545 41.3283L21.969 43.5894L12.2674 43.4065L12.6384 42.5553L19.3662 49.5615L18.4039 51.7694ZM17.3136 48.8237L15.9274 47.5376L18.0143 42.7493L19.9049 42.8782L17.3136 48.8237Z" fill="white"/>
<path d="M23.114 41.2668L14.8815 35.3189L16.2479 33.4243L21.6108 37.2989L19.0826 29.4938L20.3727 27.705L28.6052 33.653L27.2473 35.5358L21.8961 31.6697L24.4126 39.4663L23.114 41.2668Z" fill="white"/>
<path d="M34.4446 28.1465L28.8117 26.6782L29.4384 24.548L36.4121 26.342L34.4446 28.1465ZM29.5794 32.6089L22.7209 25.1179L24.4425 23.5389L31.301 31.0299L29.5794 32.6089ZM28.0354 28.4731L26.7127 27.0284L29.3217 24.6354L30.6444 26.0801L28.0354 28.4731ZM30.4219 25.2998L28.6523 26.5685L27.6503 20.5968L29.4787 18.9197L30.4219 25.2998Z" fill="white"/>
<path d="M38.9281 24.849L34.3007 17.3896L35.0397 17.5625L31.8356 19.5537L30.826 17.9262L38.3063 13.2775L39.3159 14.905L36.1118 16.8962L36.2725 16.1643L40.8999 23.6236L38.9281 24.849Z" fill="white"/>
<path d="M52.6094 18.7285C51.8581 18.9507 51.1221 19.0373 50.4016 18.9881C49.6877 18.927 49.027 18.7391 48.4198 18.4245C47.8125 18.1098 47.284 17.6862 46.8342 17.1535C46.3937 16.618 46.0652 15.9839 45.8488 15.251C45.6324 14.5181 45.5637 13.8072 45.6426 13.1181C45.7308 12.4262 45.9443 11.783 46.2831 11.1886C46.6312 10.5913 47.0896 10.0774 47.6584 9.64691C48.2245 9.20711 48.8878 8.87472 49.6484 8.64973C50.4924 8.40004 51.2969 8.32348 52.0616 8.42004C52.8329 8.50458 53.534 8.7612 54.1649 9.18989L53.1124 10.9538C52.6662 10.6722 52.2116 10.499 51.7487 10.4342C51.283 10.3601 50.809 10.3944 50.3267 10.5371C49.8722 10.6715 49.4767 10.8692 49.1403 11.1302C48.8038 11.3911 48.5375 11.7019 48.3414 12.0625C48.1454 12.4231 48.0246 12.8169 47.9793 13.2439C47.9432 13.6681 47.9936 14.1122 48.1306 14.576C48.2675 15.0399 48.4664 15.44 48.7271 15.7765C48.9971 16.1102 49.3123 16.375 49.6728 16.571C50.0332 16.767 50.4255 16.883 50.8496 16.9189C51.2737 16.9548 51.7131 16.9056 52.1676 16.7711C52.6499 16.6284 53.0677 16.404 53.421 16.0977C53.7716 15.7822 54.0564 15.3802 54.2752 14.8918L56.1167 15.7996C55.82 16.5027 55.3723 17.1042 54.7736 17.6041C54.1841 18.1012 53.4627 18.476 52.6094 18.7285Z" fill="white"/>
<path d="M56.7028 17.2285L60.3937 6.73868L62.7076 6.55069L68.0551 16.3061L65.5966 16.5059L61.1696 7.86932L62.0951 7.79412L59.1034 17.0334L56.7028 17.2285ZM58.7828 14.8759L59.2604 13.0466L64.4666 12.6236L65.2471 14.3507L58.7828 14.8759Z" fill="white"/>
<path d="M68.4887 16.4151L69.8528 6.35065L72.1675 6.66497L71.2789 13.2212L76.9695 7.31703L79.1549 7.61377L77.7908 17.6782L75.4904 17.3658L76.3771 10.824L70.6884 16.7138L68.4887 16.4151Z" fill="white"/>
<path d="M85.2812 20.2166L83.9299 14.5506L86.1036 14.1046L87.7976 21.1081L85.2812 20.2166ZM79.0584 18.0122L82.4445 8.43684L84.6464 9.21688L81.2603 18.7922L79.0584 18.0122ZM81.9816 14.707L82.6347 12.8603L85.9717 14.0425L85.3187 15.8892L81.9816 14.707ZM85.9025 15.3264L83.9517 14.3582L88.7493 10.6704L91.088 11.4988L85.9025 15.3264Z" fill="white"/>
<path d="M90.1719 22.5576L94.5779 14.9654L94.7725 15.6996L91.5112 13.8036L92.4726 12.1471L100.086 16.5735L99.1251 18.23L95.8638 16.334L96.5848 16.1322L92.1788 23.7244L90.1719 22.5576Z" fill="white"/>
<path d="M102.317 32.0422C101.769 31.4819 101.348 30.8717 101.055 30.2116C100.775 29.5516 100.632 28.8794 100.625 28.195C100.619 27.5106 100.746 26.8448 101.006 26.1976C101.273 25.5572 101.679 24.9697 102.225 24.4351C102.771 23.9004 103.367 23.5066 104.012 23.2536C104.664 23.0075 105.332 22.895 106.016 22.9161C106.706 22.9442 107.374 23.1089 108.02 23.4102C108.674 23.7047 109.277 24.1356 109.832 24.7027C110.447 25.3322 110.891 26.0076 111.164 26.7291C111.45 27.4508 111.551 28.1909 111.468 28.9496L109.418 28.8452C109.457 28.3187 109.398 27.8356 109.238 27.3959C109.086 26.9494 108.834 26.5464 108.482 26.1867C108.151 25.8478 107.792 25.5906 107.404 25.4153C107.016 25.24 106.617 25.1501 106.207 25.1457C105.797 25.1412 105.392 25.2189 104.994 25.3788C104.603 25.5456 104.234 25.7982 103.889 26.1366C103.543 26.475 103.283 26.8383 103.107 27.2264C102.939 27.6215 102.853 28.0243 102.848 28.4348C102.844 28.8454 102.925 29.2466 103.091 29.6384C103.258 30.0303 103.507 30.3957 103.838 30.7346C104.19 31.0943 104.584 31.3586 105.019 31.5276C105.462 31.6898 105.95 31.7533 106.484 31.7181L106.544 33.7717C105.784 33.8387 105.043 33.7245 104.322 33.4293C103.607 33.1409 102.939 32.6785 102.317 32.0422Z" fill="white"/>
<path d="M105.525 34.9459L116.515 33.2702L117.767 35.2248L111.671 44.5353L110.34 42.4586L115.881 34.4871L116.383 35.269L106.825 36.9737L105.525 34.9459ZM108.578 35.6758L110.417 35.2369L113.235 39.6346L112.078 41.1363L108.578 35.6758Z" fill="white"/>
<path d="M111.551 44.5186L121.059 40.9478L121.879 43.1352L115.685 45.4613L123.58 47.6728L124.355 49.7379L114.847 53.3087L114.032 51.135L120.212 48.8139L112.331 46.5973L111.551 44.5186Z" fill="white"/>
<path d="M116.217 61.4728L120.578 57.6132L121.996 59.3209L116.616 64.1125L116.217 61.4728ZM115.23 54.9453L125.272 53.4244L125.621 55.7341L115.579 57.2551L115.23 54.9453ZM119.523 55.9681L121.459 55.6748L121.989 59.1752L120.052 59.4685L119.523 55.9681ZM120.823 59.7186L120.758 57.5419L126.272 60.038L126.643 62.4912L120.823 59.7186Z" fill="white"/>
</svg>
