<svg width="43" height="57" viewBox="0 0 43 57" fill="none" xmlns="http://www.w3.org/2000/svg">
<path fill-rule="evenodd" clip-rule="evenodd" d="M19.1534 0.438793C18.6539 0.524292 17.7298 0.770517 17.0999 0.985922C16.47 1.20133 15.4987 1.62286 14.9416 1.92255C14.3844 2.22224 13.5447 2.75004 13.0754 3.09535C12.6061 3.44066 11.7607 4.20927 11.1966 4.80335C10.5897 5.4426 9.86763 6.36001 9.42751 7.05096C9.01853 7.69309 8.47855 8.72428 8.22758 9.34243C7.9765 9.96059 7.65971 10.9165 7.52342 11.4667C7.38724 12.0169 7.2223 12.9144 7.15702 13.4612C7.09174 14.008 7.03813 15.7286 7.03802 17.2847L7.0377 20.1139L5.76772 20.1738C4.90069 20.2146 4.30547 20.3034 3.89184 20.4537C3.55851 20.5748 3.09646 20.797 2.86506 20.9477C2.63354 21.0984 2.25514 21.4108 2.02406 21.6419C1.79298 21.8731 1.46301 22.2893 1.29062 22.5669C1.11833 22.8445 0.881738 23.3875 0.765009 23.7736C0.558787 24.4558 0.552734 24.8733 0.552734 38.5384C0.552734 52.0299 0.561057 52.6284 0.757551 53.2735C0.870173 53.6434 1.1153 54.1897 1.3024 54.4876C1.48938 54.7856 1.88593 55.262 2.18349 55.5465C2.48104 55.831 3.05053 56.2212 3.44903 56.4135L4.17351 56.7632H21.7369H39.3004L40.0249 56.4135C40.4234 56.2212 40.9929 55.831 41.2904 55.5465C41.588 55.262 41.9845 54.7856 42.1715 54.4876C42.3586 54.1897 42.6037 53.6434 42.7163 53.2735C42.9128 52.6284 42.9212 52.0299 42.9212 38.5384C42.9212 24.8733 42.9151 24.4558 42.7089 23.7736C42.5922 23.3875 42.3556 22.8445 42.1833 22.5669C42.0109 22.2893 41.6809 21.8731 41.4498 21.6419C41.2187 21.4108 40.8403 21.0984 40.6088 20.9477C40.3774 20.797 39.9154 20.5748 39.582 20.4537C39.1684 20.3034 38.5732 20.2146 37.7062 20.1738L36.4362 20.1139V17.3631C36.4362 15.8502 36.384 14.1343 36.3203 13.5499C36.2566 12.9656 36.0915 12.0327 35.9535 11.4769C35.8156 10.9211 35.4974 9.96059 35.2463 9.34243C34.9953 8.72428 34.4554 7.69309 34.0464 7.05096C33.6063 6.36001 32.8842 5.4426 32.2773 4.80335C31.7132 4.20927 30.8678 3.44066 30.3985 3.09535C29.9292 2.75004 29.0895 2.22224 28.5323 1.92255C27.9752 1.62286 27.0087 1.20298 26.3845 0.989678C25.7603 0.776261 24.7876 0.525176 24.2228 0.431723C23.6028 0.328991 22.5752 0.265916 21.6289 0.272434C20.7669 0.278399 19.653 0.353183 19.1534 0.438793ZM22.9799 3.73328C23.396 3.76553 24.1256 3.89555 24.6011 4.02225C25.0767 4.14885 25.9095 4.46654 26.4518 4.72834C26.9941 4.99014 27.7394 5.41366 28.1081 5.6695C28.4768 5.92533 29.1145 6.45865 29.5252 6.85467C29.9359 7.25079 30.51 7.90507 30.8009 8.30871C31.0918 8.71235 31.4828 9.32211 31.6697 9.66366C31.8567 10.0051 32.157 10.6969 32.3369 11.2009C32.5169 11.7049 32.74 12.4445 32.8326 12.8445C32.9571 13.3826 33.0147 14.4264 33.054 16.858L33.107 20.1443H31.5382H29.9694L29.9275 16.5818C29.8861 13.0708 29.8813 13.0065 29.5969 12.1356C29.4382 11.6496 29.1246 10.934 28.9002 10.5454C28.6757 10.1569 28.2003 9.53343 27.8436 9.15984C27.4869 8.78636 26.9128 8.29203 26.5677 8.06138C26.2226 7.83073 25.5417 7.48498 25.0545 7.29299L24.1688 6.94403L21.7369 6.94459C19.3307 6.94525 19.2968 6.94856 18.5142 7.2561C18.0792 7.42709 17.4238 7.74645 17.0576 7.96572C16.6915 8.1851 16.0747 8.69489 15.6869 9.09875C15.2991 9.50261 14.7981 10.1522 14.5737 10.5424C14.3493 10.9327 14.0357 11.6496 13.877 12.1356C13.5926 13.0065 13.5878 13.0708 13.5464 16.5818L13.5045 20.1443H11.9357H10.3669L10.4199 16.858C10.4592 14.4264 10.5168 13.3826 10.6413 12.8445C10.7339 12.4445 10.957 11.7049 11.1369 11.2009C11.3169 10.6969 11.6172 10.0051 11.8041 9.66366C11.9911 9.32211 12.3821 8.71235 12.673 8.30871C12.9639 7.90507 13.538 7.25079 13.9487 6.85467C14.3594 6.45865 14.9971 5.92533 15.3658 5.6695C15.7345 5.41366 16.4798 4.98992 17.0221 4.7279C17.5644 4.46588 18.4136 4.14454 18.9093 4.01364C19.405 3.88285 20.2318 3.73947 20.7467 3.69495C21.2616 3.65054 21.8045 3.62779 21.9531 3.64436C22.1017 3.66104 22.5638 3.70102 22.9799 3.73328ZM22.9799 10.3174C23.396 10.3783 23.9958 10.5614 24.3128 10.7246C24.6335 10.8895 25.1448 11.3033 25.4655 11.6574C25.8134 12.0414 26.141 12.547 26.2919 12.9326C26.5299 13.5413 26.5435 13.7282 26.5784 16.858L26.6151 20.1443H21.7369H16.8587L16.8955 16.858C16.9304 13.7282 16.944 13.5413 17.182 12.9326C17.3329 12.5469 17.6605 12.0414 18.0088 11.6569C18.354 11.2759 18.8285 10.8985 19.1901 10.7176C19.5225 10.5512 20.0734 10.3733 20.4144 10.3223C20.7554 10.2712 21.3019 10.2244 21.6289 10.2182C21.9558 10.212 22.5638 10.2566 22.9799 10.3174ZM38.7791 23.855C38.947 23.9822 39.1936 24.2505 39.3274 24.4513L39.5706 24.8165V38.5366V52.2567L39.3271 52.6261C39.1931 52.8292 38.9134 53.0976 38.7056 53.2224C38.3287 53.4486 38.2785 53.4493 21.7369 53.4493C5.19543 53.4493 5.14517 53.4486 4.76828 53.2224C4.56044 53.0976 4.28083 52.8292 4.14681 52.6261L3.9033 52.2567V38.57C3.9033 27.0306 3.92708 24.8365 4.05515 24.585C4.1387 24.4209 4.32687 24.1723 4.47333 24.0324C4.61989 23.8927 4.87983 23.735 5.05103 23.6822C5.22266 23.6293 12.7944 23.5948 21.9182 23.6051L38.474 23.6239L38.7791 23.855ZM20.7759 30.53C20.5149 30.5863 19.9916 30.7803 19.6131 30.9613C19.2346 31.1423 18.6563 31.5502 18.3279 31.8675C17.9338 32.2484 17.6043 32.7102 17.3582 33.226C17.147 33.6691 16.9369 34.3304 16.8732 34.7532C16.795 35.2733 16.7957 35.7244 16.8757 36.2445C16.9388 36.6545 17.1329 37.3034 17.3071 37.6862C17.5048 38.1209 17.8582 38.6213 18.2483 39.0189C18.5917 39.3689 19.1525 39.7948 19.4942 39.965L20.1157 40.2747L20.1161 43.1614C20.1165 45.8614 20.1306 46.0718 20.3345 46.4136C20.4604 46.6246 20.7457 46.8687 21.0097 46.9911C21.2611 47.1077 21.5883 47.2032 21.7369 47.2032C21.8856 47.2032 22.2128 47.1077 22.4642 46.9911C22.7282 46.8687 23.0135 46.6246 23.1394 46.4136C23.3433 46.0718 23.3574 45.8614 23.3578 43.1614L23.3582 40.2747L23.9797 39.965C24.3215 39.7948 24.8822 39.3689 25.2256 39.0189C25.6157 38.6213 25.9691 38.1209 26.1668 37.6862C26.3409 37.3034 26.5351 36.6545 26.5982 36.2445C26.6791 35.7185 26.6791 35.2791 26.5982 34.7532C26.5351 34.3432 26.3438 33.7004 26.173 33.3249C26.0022 32.9495 25.6528 32.4097 25.3964 32.1255C25.14 31.8412 24.7346 31.4723 24.4955 31.3055C24.2564 31.1388 23.7766 30.8946 23.4293 30.7629C23.0819 30.6311 22.4496 30.5019 22.0242 30.4756C21.5987 30.4493 21.037 30.4737 20.7759 30.53ZM22.6101 34.1794C22.7987 34.3167 23.0456 34.643 23.1588 34.9043C23.2937 35.2158 23.3396 35.4857 23.2921 35.6877C23.2524 35.8572 23.1548 36.1278 23.0754 36.289C22.996 36.4503 22.7661 36.6863 22.5644 36.8137C22.3422 36.9541 22.0162 37.0453 21.7369 37.0453C21.4577 37.0453 21.1317 36.9541 20.9095 36.8137C20.7078 36.6863 20.4779 36.4503 20.3984 36.289C20.3191 36.1278 20.2215 35.8572 20.1817 35.6877C20.1343 35.4857 20.1802 35.2158 20.3151 34.9043C20.4283 34.643 20.6607 34.3289 20.8316 34.2064C21.0026 34.084 21.2154 33.9533 21.3046 33.916C21.3938 33.8786 21.6468 33.8665 21.867 33.889C22.0871 33.9116 22.4215 34.0422 22.6101 34.1794Z" fill="#008DD2"/>
</svg>
