<svg width="41" height="48" viewBox="0 0 41 48" fill="none" xmlns="http://www.w3.org/2000/svg">
<path fill-rule="evenodd" clip-rule="evenodd" d="M0.951286 22.2101C1.80103 21.8985 2.83432 22.1511 3.25919 22.7743L18.7411 45.4815C19.166 46.1046 18.8215 46.8624 17.9718 47.174C17.122 47.4856 16.0888 47.233 15.6639 46.6098L0.181984 23.9026C-0.242889 23.2795 0.101539 22.5217 0.951286 22.2101Z" fill="#3CD623"/>
<path fill-rule="evenodd" clip-rule="evenodd" d="M39.848 0.0970522C40.7762 0.38286 41.2373 1.21309 40.8781 1.95143L19.2525 46.3913C18.8932 47.1296 17.8495 47.4965 16.9213 47.2106C15.9932 46.9248 15.532 46.0946 15.8913 45.3563L37.5168 0.916428C37.8761 0.178092 38.9198 -0.188756 39.848 0.0970522Z" fill="#3CD623"/>
</svg>
