<svg width="19" height="22" viewBox="0 0 19 22" fill="none" xmlns="http://www.w3.org/2000/svg">
<path fill-rule="evenodd" clip-rule="evenodd" d="M0.7419 10.6477C1.12241 10.5081 1.58512 10.6212 1.77537 10.9003L8.70811 21.0685C8.89837 21.3475 8.74413 21.6868 8.36362 21.8264C7.98311 21.9659 7.5204 21.8528 7.33015 21.5737L0.39741 11.4055C0.207153 11.1265 0.361387 10.7872 0.7419 10.6477Z" fill="#FF6F6F"/>
<path fill-rule="evenodd" clip-rule="evenodd" d="M18.1598 0.74512C18.5754 0.873103 18.7819 1.24488 18.6211 1.5755L8.93721 21.4755C8.77632 21.8061 8.30896 21.9704 7.89333 21.8424C7.47769 21.7144 7.27118 21.3427 7.43208 21.012L17.1159 1.11203C17.2768 0.781409 17.7442 0.617136 18.1598 0.74512Z" fill="#FF6F6F"/>
</svg>
