<svg width="1363" height="265" viewBox="0 0 1363 265" fill="none" xmlns="http://www.w3.org/2000/svg">
<path fill-rule="evenodd" clip-rule="evenodd" d="M1255.04 100.029H41.6836V73.7965V47.5644H1255.04C1290.5 47.5644 1319.01 59.464 1338.22 80.9106C1357.48 102.425 1365.15 131.151 1362.49 159.093C1357.11 215.474 1311.36 265 1241.63 265V212.536C1291.03 212.536 1313.86 179.577 1316.35 153.471C1317.61 140.171 1314.04 127.654 1305.6 118.236C1297.11 108.75 1281.46 100.029 1255.04 100.029Z" fill="url(#paint0_linear_95_308)"/>
<path fill-rule="evenodd" clip-rule="evenodd" d="M11.818 91.3218L5.80196 86.2579C-1.87994 79.7919 -1.77677 67.9303 6.01644 61.5989L11.818 56.8855L75.2869 4.235C81.6085 -1.00905 90.977 -0.513243 96.8302 5.24897V5.24897C103.641 11.9539 103.221 23.221 95.7848 29.2252L72.4544 48.0635L41.6888 73.7987L72.4544 100.528L96.4617 120.308C103.634 126.217 104.28 136.973 97.8666 143.698L96.9262 144.685C91.041 150.856 81.3496 151.327 74.8935 145.756L11.818 91.3218Z" fill="url(#paint1_linear_95_308)"/>
<defs>
<linearGradient id="paint0_linear_95_308" x1="4.91943" y1="72.8559" x2="1320.46" y2="228.222" gradientUnits="userSpaceOnUse">
<stop stop-color="#F1CC02"/>
<stop offset="0.987765" stop-color="#EBBC00"/>
</linearGradient>
<linearGradient id="paint1_linear_95_308" x1="4.91943" y1="72.8559" x2="1320.46" y2="228.222" gradientUnits="userSpaceOnUse">
<stop stop-color="#F1CC02"/>
<stop offset="0.987765" stop-color="#EBBC00"/>
</linearGradient>
</defs>
</svg>
