<svg width="954" height="808" viewBox="0 0 954 808" fill="none" xmlns="http://www.w3.org/2000/svg">
<g filter="url(#filter0_i_1_130)">
<path d="M361.06 365.818C229.745 449.19 293.941 221.934 304.189 70" stroke="#F0C802" stroke-width="45"/>
</g>
<g filter="url(#filter1_i_1_130)">
<path d="M611.143 195.871L617.874 168.142L575.129 157.767L557 182.729L611.143 195.871Z" fill="#F1CC02"/>
</g>
<path d="M258.112 340.701L423.146 287.799L436.453 329.311C437.934 333.932 436.337 338.984 432.47 341.915L367.239 391.342C364.691 393.273 361.452 394.049 358.306 393.482L276.688 378.775C272.527 378.025 269.119 375.039 267.828 371.013L258.112 340.701Z" fill="#1D6280"/>
<path d="M245.291 300.738C243.369 294.725 245.58 286.398 250.231 282.132L306.348 230.669L334.397 318.172L279.15 371.565C274.456 376.102 268.95 374.771 266.986 368.625L245.291 300.738Z" fill="#8EC1E9"/>
<path d="M306.44 230.812L401.272 248.896C407.128 250.012 412.739 254.84 414.455 260.24L435.855 327.568C437.997 334.309 433.261 339.055 425.928 337.515L334.491 318.322L306.44 230.812Z" fill="#02415E"/>
<path d="M660.679 232.964L783.438 193.614L792.703 222.517C794.184 227.138 792.587 232.19 788.72 235.12L742.876 269.858C740.329 271.788 737.089 272.564 733.943 271.997L676.23 261.598C672.068 260.848 668.66 257.862 667.369 253.835L660.679 232.964Z" fill="#3966FF"/>
<path d="M652.033 206.027C650.112 200.013 652.323 191.686 656.973 187.421L696.559 151.118L717.423 216.207L678.525 253.8C673.831 258.336 668.325 257.005 666.361 250.859L652.033 206.027Z" fill="#02415E"/>
<path d="M696.628 151.224L764.556 164.178C770.412 165.295 776.023 170.123 777.739 175.522L791.842 219.893C793.984 226.634 789.248 231.38 781.915 229.841L717.493 216.318L696.628 151.224Z" fill="#1D6280"/>
<path d="M34.2705 613.734L259.495 541.539L278.557 601.004C280.038 605.624 278.441 610.676 274.574 613.607L181.74 683.95C179.193 685.881 175.953 686.656 172.808 686.09L57.156 665.25C52.9943 664.5 49.5864 661.514 48.2956 657.488L34.2705 613.734Z" fill="#3966FF"/>
<path d="M15.5051 555.226C13.5834 549.213 15.7943 540.886 20.445 536.621L100.099 463.572L138.378 582.989L59.8547 658.878C55.1607 663.415 49.6544 662.084 47.6902 655.938L15.5051 555.226Z" fill="#1D6280"/>
<path d="M100.225 463.767L233.362 489.155C239.218 490.272 244.829 495.1 246.545 500.5L278.334 600.513C280.476 607.254 275.74 612 268.407 610.461L138.506 583.193L100.225 463.767Z" fill="#02415E"/>
<path d="M125.768 166.61L334.548 99.686L352.036 154.246C353.518 158.866 351.921 163.918 348.054 166.849L262.762 231.478C260.214 233.408 256.975 234.184 253.829 233.617L147.476 214.453C143.315 213.703 139.907 210.718 138.616 206.691L125.768 166.61Z" fill="#02415E"/>
<path d="M108.627 113.169C106.705 107.156 108.916 98.8286 113.567 94.5635L186.79 27.4125L222.274 138.11L150.11 207.853C145.416 212.389 139.91 211.058 137.946 204.912L108.627 113.169Z" fill="#1D6280"/>
<path d="M186.906 27.593L309.578 50.986C315.434 52.1027 321.044 56.9307 322.761 62.3303L351.711 153.413C353.853 160.154 349.117 164.9 341.784 163.361L222.393 138.299L186.906 27.593Z" fill="#3966FF"/>
<path d="M552.11 721.934L723.702 666.931L737.636 710.399C739.117 715.02 737.52 720.072 733.653 723.002L665.415 774.709C662.867 776.64 659.628 777.415 656.482 776.849L571.156 761.473C566.994 760.723 563.586 757.738 562.295 753.711L552.11 721.934Z" fill="#1D6280"/>
<path d="M538.641 679.951C536.719 673.937 538.93 665.61 543.581 661.345L602.263 607.53L631.426 698.51L573.644 754.355C568.95 758.891 563.443 757.56 561.479 751.414L538.641 679.951Z" fill="#02415E"/>
<path d="M602.358 607.678L701.364 626.558C707.22 627.675 712.831 632.503 714.547 637.903L737.079 708.792C739.221 715.533 734.485 720.279 727.152 718.74L631.524 698.666L602.358 607.678Z" fill="#3966FF"/>
<path d="M372.282 354.24L663.302 260.954L688.641 340.004C690.13 344.648 688.525 349.726 684.638 352.671L561.685 445.837C559.124 447.778 555.869 448.558 552.707 447.988L399.912 420.455C395.729 419.701 392.304 416.701 391.007 412.653L372.282 354.24Z" fill="#02415E"/>
<path d="M347.036 275.515C345.104 269.471 347.326 261.102 352.001 256.816L457.341 160.211L506.802 314.513L402.878 414.951C398.16 419.511 392.626 418.173 390.652 411.996L347.036 275.515Z" fill="#8EC1E9"/>
<path d="M457.503 160.463L632.46 193.826C638.346 194.949 643.985 199.801 645.71 205.228L688.819 340.857C690.972 347.632 686.212 352.403 678.842 350.855L506.968 314.777L457.503 160.463Z" fill="#1D6280"/>
<path d="M485.543 227.466C484.494 226.254 483.16 225.292 481.641 224.652C482.1 224.606 482.54 224.432 482.904 224.152C483.268 223.871 483.54 223.498 483.684 223.079C483.958 222.256 483.861 221.118 483.4 219.68L483.08 218.681C482.466 216.652 481.249 214.853 479.57 213.494C478.056 212.344 476.289 211.518 474.386 211.072L475.765 215.374C475.953 215.493 476.13 215.627 476.293 215.775C476.962 216.417 477.442 217.214 477.692 218.094L478.192 219.654C478.548 220.764 478.503 221.482 478.057 221.809C478.004 221.855 477.942 221.891 477.875 221.916L479.399 226.669C479.752 226.831 480.08 227.037 480.374 227.28C481.199 228.056 481.781 229.033 482.062 230.113L482.85 232.572C483.183 233.61 483.176 234.304 482.81 234.593C482.589 234.769 482.314 234.87 482.031 234.88L483.344 238.977C485.487 239.245 486.993 239.001 487.877 238.265C488.91 237.401 489.079 235.884 488.388 233.729L487.657 231.448C487.217 230.001 486.5 228.653 485.543 227.466Z" fill="#F2F2F2"/>
<path d="M497.013 215.237L488.939 213.729L492.294 240.663L497.358 241.605L496.684 236.703L503.457 237.973L506.039 243.23L511.611 244.267L497.013 215.237ZM496.171 233.041L494.291 219.391L501.486 234.031L496.171 233.041Z" fill="#F2F2F2"/>
<path d="M503.639 216.474L504.92 220.471L510.688 221.549L518.376 245.533L523.893 246.562L516.205 222.578L521.974 223.656L520.692 219.658L503.639 216.474Z" fill="#F2F2F2"/>
<path d="M539.548 226.93L538.266 222.933L523.218 220.122L532.188 248.103L547.236 250.914L545.954 246.917L536.425 245.141L533.799 236.946L541.37 238.358L540.089 234.361L532.517 232.949L530.026 225.176L539.548 226.93Z" fill="#F2F2F2"/>
<path d="M545.07 224.217L551.913 245.564C552.269 246.674 552.179 247.315 551.676 247.544C551.007 247.787 550.281 247.822 549.606 247.644L548.652 247.466C548.319 247.408 548.002 247.338 547.693 247.253L548.974 251.251C549.457 251.389 549.897 251.494 550.302 251.572L551.653 251.824C552.598 252.01 553.567 252.09 554.539 252.062C555.306 252.059 556.063 251.842 556.717 251.438C557.017 251.22 557.268 250.945 557.453 250.633C557.637 250.321 557.751 249.977 557.786 249.626C557.896 248.48 557.739 247.334 557.327 246.271L551.869 229.244L558.285 230.444L565.973 254.428L571.49 255.457L562.521 227.476L545.07 224.217Z" fill="#F2F2F2"/>
<path d="M584.789 243.168C582.86 241.656 580.533 240.652 578.032 240.253L575.421 239.767L572.052 229.258L566.533 228.223L575.502 256.204L583.633 257.724C586.418 258.239 588.296 258.045 589.268 257.142C590.243 256.217 590.376 254.632 589.65 252.367L588.484 248.73C587.832 246.569 586.553 244.644 584.789 243.168ZM584.217 251.598C584.541 252.609 584.525 253.256 584.183 253.537C583.841 253.819 583.228 253.887 582.357 253.725L579.746 253.24L576.708 243.763L579.319 244.248C580.124 244.384 580.874 244.704 581.505 245.182C582.176 245.778 582.649 246.547 582.871 247.401L584.217 251.598Z" fill="#F2F2F2"/>
<path d="M597.187 233.953L601.031 245.945L594.761 244.772L590.917 232.78L585.4 231.75L594.369 259.731L599.886 260.761L596.042 248.769L602.313 249.942L606.157 261.934L611.771 262.981L602.802 235L597.187 233.953Z" fill="#F2F2F2"/>
<path d="M621.389 239.885C619.446 238.351 617.105 237.324 614.584 236.899C611.873 236.39 610.001 236.617 608.946 237.555C607.891 238.493 607.74 240.109 608.465 242.369L613.133 256.931C613.81 259.128 615.136 261.075 616.957 262.55C618.9 264.081 621.241 265.106 623.761 265.53C626.475 266.039 628.355 265.822 629.401 264.879C630.447 263.931 630.614 262.329 629.888 260.064L625.22 245.501C624.539 243.306 623.211 241.36 621.389 239.885ZM624.456 259.301C624.78 260.311 624.745 260.978 624.363 261.296C623.98 261.615 623.347 261.683 622.47 261.523C621.626 261.377 620.84 261.034 620.185 260.523C619.469 259.919 618.961 259.126 618.719 258.238L613.875 243.126C613.551 242.116 613.58 241.451 613.971 241.136C614.251 240.963 614.567 240.852 614.894 240.81C615.222 240.769 615.552 240.799 615.859 240.898C616.706 241.049 617.492 241.396 618.148 241.909C618.862 242.513 619.37 243.304 619.612 244.189L624.456 259.301Z" fill="#F2F2F2"/>
<path d="M642.909 246.254L641.637 242.284L626.589 239.473L635.558 267.454L650.606 270.265L649.325 266.268L639.794 264.486L637.158 256.264L644.73 257.676L643.449 253.678L635.877 252.267L633.385 244.494L642.909 246.254Z" fill="#F2F2F2"/>
<path d="M485.096 244.482L493.992 272.235L496.83 272.716L489.205 248.927L495.088 249.944L493.817 245.979L485.096 244.482Z" fill="#F2F2F2"/>
<path d="M510.986 250.816C509.058 249.301 506.731 248.297 504.229 247.9L496.106 246.384L505.075 274.365L510.592 275.394L507.222 264.879L509.827 265.366C512.612 265.882 514.491 265.688 515.463 264.784C516.435 263.881 516.563 262.291 515.847 260.014L514.672 256.35C514.021 254.198 512.745 252.282 510.986 250.816ZM510.411 259.24C510.737 260.256 510.72 260.899 510.378 261.18C510.036 261.461 509.422 261.529 508.552 261.367L505.946 260.88L502.91 251.409L505.516 251.896C506.321 252.032 507.071 252.352 507.702 252.83C508.371 253.424 508.844 254.191 509.066 255.043L510.411 259.24Z" fill="#F2F2F2"/>
<path d="M527.156 252.183L519.074 250.672L522.429 277.606L527.494 278.554L526.82 273.652L533.591 274.916L536.174 280.173L541.746 281.21L527.156 252.183ZM526.312 269.982L524.432 256.332L531.628 270.978L526.312 269.982Z" fill="#F2F2F2"/>
<path d="M547.066 255.903L550.91 267.895L544.641 266.727L540.797 254.735L535.286 253.722L544.255 281.703L549.774 282.738L545.93 270.746L552.199 271.914L556.043 283.906L561.659 284.959L552.69 256.978L547.066 255.903Z" fill="#F2F2F2"/>
<path d="M575.659 270.118L574.784 267.387C574.113 265.209 572.812 263.272 571.025 261.79C569.112 260.258 566.794 259.234 564.295 258.817C561.584 258.314 559.731 258.539 558.735 259.491C557.725 260.427 557.594 262.061 558.318 264.32L562.986 278.883C563.658 281.062 564.959 283.001 566.747 284.485C568.657 286.017 570.975 287.037 573.473 287.447C576.186 287.957 578.041 287.736 579.037 286.784C580.033 285.832 580.171 284.221 579.452 281.949L578.261 278.235L573.044 277.263L574.325 281.26C574.649 282.27 574.616 282.924 574.23 283.231C573.944 283.394 573.625 283.498 573.298 283.534C572.97 283.57 572.641 283.539 572.333 283.441C571.491 283.295 570.708 282.955 570.051 282.452C569.337 281.86 568.83 281.075 568.594 280.195L563.75 265.083C563.426 264.073 563.453 263.403 563.844 263.088C564.234 262.773 564.857 262.695 565.734 262.855C566.58 263.008 567.366 263.355 568.023 263.866C568.734 264.471 569.24 265.263 569.481 266.148L570.442 269.146L575.659 270.118Z" fill="#F2F2F2"/>
<path d="M574.654 261.055L575.935 265.053L581.705 266.136L589.393 290.119L594.91 291.149L587.222 267.165L592.99 268.242L591.709 264.245L574.654 261.055Z" fill="#F2F2F2"/>
<path d="M615.239 283.016C614.194 281.802 612.862 280.839 611.343 280.2C611.802 280.152 612.242 279.977 612.605 279.697C612.969 279.417 613.241 279.045 613.387 278.626C613.66 277.804 613.564 276.665 613.103 275.228L612.782 274.228C612.177 272.2 610.968 270.398 609.297 269.034C607.336 267.588 605.007 266.641 602.519 266.278L594.229 264.711L603.198 292.692L611.87 294.308C614.658 294.831 616.567 294.655 617.597 293.782C618.63 292.919 618.798 291.401 618.108 289.247L617.376 286.965C616.928 285.528 616.204 284.189 615.239 283.016ZM601.016 269.741L603.67 270.237C604.554 270.379 605.368 270.754 606.021 271.32C606.69 271.963 607.171 272.76 607.42 273.639L607.92 275.199C608.276 276.31 608.227 277.035 607.779 277.356C607.332 277.677 606.592 277.737 605.552 277.538L603.4 277.138L601.016 269.741ZM612.554 288.083C612.887 289.121 612.88 289.815 612.544 290.094C612.207 290.373 611.544 290.47 610.603 290.294L607.448 289.707L604.697 281.124L607.144 281.564C608.238 281.725 609.261 282.149 610.113 282.798C610.938 283.573 611.52 284.551 611.8 285.63L612.554 288.083Z" fill="#F2F2F2"/>
<path d="M629.101 272.628C627.158 271.096 624.818 270.071 622.298 269.648C619.587 269.139 617.714 269.366 616.659 270.304C615.604 271.242 615.454 272.858 616.178 275.117L620.843 289.668C621.521 291.865 622.846 293.812 624.668 295.287C626.611 296.819 628.951 297.844 631.472 298.267C634.182 298.77 636.062 298.551 637.11 297.611C638.158 296.671 638.318 295.066 637.591 292.798L632.93 278.257C632.251 276.057 630.925 274.106 629.101 272.628ZM632.163 292.046C632.486 293.056 632.459 293.726 632.075 294.039C631.69 294.352 631.061 294.432 630.184 294.272C629.34 294.119 628.555 293.774 627.897 293.266C627.186 292.661 626.68 291.87 626.439 290.985L621.598 275.884C621.274 274.873 621.302 274.203 621.686 273.89C621.967 273.718 622.284 273.607 622.611 273.566C622.939 273.526 623.269 273.557 623.577 273.658C624.421 273.808 625.207 274.154 625.864 274.664C626.574 275.269 627.08 276.06 627.322 276.945L632.163 292.046Z" fill="#F2F2F2"/>
<path d="M387.097 267.724L386.257 264.994C385.56 262.725 384.525 261.482 383.157 261.275C381.788 261.067 380.142 261.933 378.209 263.899C376.395 265.667 375.078 267.83 374.384 270.18C373.765 272.418 373.805 274.75 374.499 276.921L378.988 291.527C379.687 293.801 380.723 295.05 382.092 295.257C383.461 295.465 385.109 294.586 387.038 292.627C388.852 290.862 390.17 288.7 390.864 286.352C391.483 284.11 391.442 281.774 390.747 279.6L389.601 275.872L385.875 279.651L387.109 283.664C387.416 284.522 387.452 285.456 387.211 286.353C386.956 287.139 386.507 287.863 385.902 288.463C385.705 288.719 385.453 288.934 385.164 289.091C384.874 289.249 384.553 289.346 384.225 289.375C383.734 289.349 383.332 288.826 383.02 287.812L378.358 272.642C378.05 271.778 378.013 270.84 378.25 269.937C378.495 269.141 378.942 268.406 379.551 267.799C379.747 267.542 380.001 267.329 380.293 267.176C380.585 267.023 380.908 266.934 381.236 266.915C381.731 266.952 382.135 267.481 382.446 268.495L383.371 271.504L387.097 267.724Z" fill="white"/>
<path d="M395.378 246.881L389.608 252.735L394.234 284.896L397.848 281.223L396.963 275.432L401.796 270.525L404.045 274.933L408.023 270.892L395.378 246.881ZM396.3 271.111L393.83 254.987L400.093 267.255L396.3 271.111Z" fill="white"/>
<path d="M408.73 233.324L409.854 254.24L404.686 237.427L401.176 240.994L409.809 269.081L413.856 264.97L412.505 239.641L418.758 259.987L422.305 256.39L413.672 228.304L408.73 233.324Z" fill="white"/>
<path d="M429.57 212.158L425.701 216.086L424.231 233.616L420.48 221.411L416.541 225.409L425.174 253.496L429.112 249.498L426.456 240.855L426.889 237.062L434.16 244.373L438.207 240.262L427.953 230.251L429.57 212.158Z" fill="white"/>
<path d="M430.28 211.434L431.513 215.446L435.643 211.262L443.042 235.336L446.981 231.338L439.582 207.264L443.699 203.083L442.466 199.07L430.28 211.434Z" fill="white"/>
<path d="M393.586 294.548C392.184 294.374 390.516 295.266 388.582 297.227C386.757 299.017 385.423 301.198 384.704 303.567C384.053 305.816 384.078 308.169 384.775 310.358L389.265 324.964C389.963 327.237 390.996 328.475 392.412 328.644C393.828 328.813 395.454 327.928 397.412 325.954C399.238 324.169 400.574 321.992 401.293 319.626C401.944 317.373 401.918 315.016 401.219 312.824L396.737 298.24C396.033 295.949 394.983 294.723 393.586 294.548ZM397.368 317.106C397.676 317.972 397.713 318.912 397.477 319.817C397.228 320.61 396.78 321.34 396.173 321.944C395.551 322.574 394.991 322.874 394.49 322.839C393.99 322.804 393.591 322.268 393.279 321.254L388.617 306.085C388.309 305.22 388.272 304.282 388.509 303.379C388.754 302.583 389.201 301.848 389.81 301.241C390.006 300.984 390.259 300.771 390.552 300.618C390.844 300.465 391.167 300.376 391.495 300.357C391.99 300.394 392.393 300.923 392.705 301.937L397.368 317.106Z" fill="white"/>
<path d="M411.174 290.869C409.848 290.67 408.195 291.585 406.217 293.612L404.353 295.508L402.337 288.949L408.798 282.371L407.564 278.359L397.118 288.95L405.75 317.036L411.553 311.142C413.38 309.387 414.715 307.233 415.431 304.888C416.037 302.673 415.988 300.365 415.288 298.222L414.171 294.589C413.52 292.301 412.502 291.07 411.174 290.869ZM411.489 302.507C411.795 303.331 411.845 304.229 411.633 305.097C411.389 305.85 410.956 306.542 410.373 307.113L408.509 309.009L405.586 299.497L407.45 297.6C408.067 296.977 408.602 296.679 409.055 296.71C409.508 296.742 409.881 297.274 410.194 298.294L411.489 302.507Z" fill="white"/>
<path d="M421.929 266.1C420.603 265.906 418.951 266.82 416.972 268.843L411.169 274.738L419.801 302.825L423.74 298.827L420.491 288.255L422.355 286.359C424.182 284.603 425.518 282.449 426.233 280.104C426.839 277.89 426.79 275.582 426.09 273.439L424.971 269.8C424.274 267.532 423.257 266.302 421.929 266.1ZM422.242 277.733C422.56 278.502 422.623 279.353 422.423 280.175C422.223 280.997 421.77 281.753 421.122 282.346L419.258 284.243L416.336 274.736L418.2 272.839C418.822 272.209 419.358 271.916 419.805 271.949C420.253 271.983 420.631 272.513 420.943 273.527L422.242 277.733Z" fill="white"/>
<path d="M433.331 252.227L427.567 258.079L432.191 290.234L435.808 286.567L434.92 280.771L439.754 275.863L441.998 280.279L445.976 276.238L433.331 252.227ZM434.253 276.456L431.796 260.31L438.061 272.584L434.253 276.456Z" fill="white"/>
<path d="M452.805 242.222L452.583 241.497C451.886 239.229 450.851 237.986 449.482 237.778C448.114 237.571 446.47 238.442 444.534 240.403C442.721 242.173 441.404 244.338 440.711 246.689C440.092 248.927 440.131 251.26 440.826 253.43L441.665 256.161L445.385 252.383L444.46 249.374C444.15 248.507 444.115 247.566 444.357 246.661C444.604 245.865 445.05 245.131 445.657 244.523C446.279 243.893 446.84 243.616 447.355 243.678C447.869 243.739 448.304 244.411 448.689 245.664L449.171 247.23C449.513 248.176 449.544 249.207 449.259 250.192C448.947 251.089 448.42 251.913 447.721 252.598L446.903 253.459L448.126 257.438L448.737 256.817C449.643 255.899 450.38 255.495 450.977 255.611C451.573 255.726 452.033 256.457 452.435 257.767L453.12 259.996C453.491 260.975 453.568 262.041 453.344 263.08C453.105 263.881 452.659 264.62 452.047 265.229C451.427 265.865 450.865 266.16 450.365 266.125C449.865 266.089 449.461 265.561 449.149 264.547L447.978 260.735L444.258 264.513L445.346 268.052C446.045 270.325 447.079 271.569 448.45 271.782C449.813 271.973 451.465 271.105 453.394 269.146C455.21 267.382 456.528 265.22 457.221 262.871C457.842 260.629 457.801 258.292 457.103 256.119L456.418 253.89C456.147 252.733 455.54 251.682 454.663 250.855C453.934 250.266 452.996 250.245 451.851 250.792C452.62 249.479 453.102 248.041 453.266 246.567C453.43 245.093 453.273 243.614 452.805 242.222Z" fill="white"/>
<path d="M463.547 223.502C462.149 223.329 460.482 224.224 458.545 226.186C456.721 227.973 455.388 230.152 454.671 232.518C454.017 234.769 454.04 237.125 454.738 239.316L459.227 253.923C459.926 256.196 460.959 257.434 462.379 257.595C463.798 257.757 465.421 256.88 467.374 254.913C469.2 253.125 470.535 250.946 471.254 248.579C471.909 246.326 471.885 243.968 471.186 241.775L466.696 227.169C465.993 224.903 464.944 223.676 463.547 223.502ZM467.325 246.048C467.634 246.913 467.669 247.853 467.426 248.756C467.18 249.55 466.733 250.283 466.124 250.888C465.929 251.146 465.676 251.36 465.384 251.514C465.092 251.668 464.769 251.758 464.44 251.778C463.94 251.742 463.536 251.214 463.224 250.2L458.567 235.047C458.258 234.181 458.222 233.239 458.464 232.334C458.711 231.54 459.158 230.808 459.766 230.202C460.388 229.572 460.95 229.277 461.45 229.312C461.95 229.347 462.356 229.882 462.668 230.896L467.325 246.048Z" fill="white"/>
<path d="M474.192 215.979C474.534 215.567 474.999 215.262 475.523 215.106L474.195 210.787C473.835 211.099 473.458 211.465 473.07 211.859L467.096 217.897L475.73 245.99L481.959 239.72C482.257 239.415 482.543 239.114 482.807 238.807L481.535 234.667C481.3 235.03 481.026 235.369 480.718 235.68L478.464 237.965L475.813 229.338L477.574 227.577C477.981 227.128 478.469 226.752 479.015 226.469L477.549 221.699C477.222 222.473 476.737 223.184 476.123 223.79L474.586 225.348L472.298 217.903L474.192 215.979Z" fill="white"/>
<path d="M393.34 336.696L401.973 364.783L405.91 360.779L397.278 332.693L393.34 336.696Z" fill="white"/>
<path d="M399.063 330.881L400.297 334.894L404.414 330.713L411.813 354.787L415.752 350.789L408.353 326.715L412.47 322.534L411.237 318.521L399.063 330.881Z" fill="white"/>
<path d="M416.548 328.923L417.781 332.935L424.941 325.66L423.713 321.664L416.548 328.923Z" fill="white"/>
<path d="M422.695 306.888L431.327 334.975L435.264 330.971L427.865 306.897L432.342 302.355L439.741 326.43L443.754 322.354L435.121 294.267L422.695 306.888Z" fill="white"/>
<path d="M448.747 282.748C447.42 282.55 445.768 283.465 443.79 285.492L437.991 291.379L446.624 319.465L450.563 315.467L447.312 304.89L449.172 303.001C450.998 301.246 452.334 299.092 453.05 296.747C453.658 294.532 453.608 292.225 452.907 290.082L451.788 286.443C451.091 284.175 450.078 282.937 448.747 282.748ZM449.058 294.375C449.376 295.145 449.439 295.995 449.24 296.818C449.04 297.64 448.587 298.396 447.938 298.989L446.079 300.878L443.157 291.371L445.016 289.482C445.638 288.851 446.173 288.553 446.622 288.592C447.071 288.631 447.446 289.15 447.758 290.164L449.058 294.375Z" fill="white"/>
<path d="M461.968 268.975C460.562 268.797 458.924 269.685 456.966 271.659C455.14 273.447 453.805 275.626 453.086 277.993C452.436 280.244 452.461 282.599 453.159 284.789L457.648 299.396C458.347 301.669 459.396 302.894 460.794 303.07C462.192 303.247 463.859 302.352 465.796 300.386C467.622 298.599 468.956 296.42 469.675 294.052C470.327 291.801 470.302 289.446 469.603 287.256L465.113 272.65C464.416 270.381 463.365 269.149 461.968 268.975ZM465.751 291.538C466.06 292.402 466.097 293.341 465.858 294.244C465.613 295.038 465.165 295.771 464.556 296.376C463.934 297.006 463.379 297.299 462.872 297.266C462.366 297.232 461.974 296.7 461.663 295.686L457 280.517C456.692 279.651 456.654 278.71 456.891 277.805C457.139 277.011 457.586 276.279 458.193 275.673C458.39 275.417 458.644 275.204 458.935 275.05C459.227 274.896 459.549 274.805 459.877 274.783C460.373 274.826 460.777 275.355 461.089 276.369L465.751 291.538Z" fill="white"/>
<path d="M479.847 261.272L479.007 258.541C478.311 256.275 477.277 255.033 475.905 254.817C474.533 254.6 472.885 255.476 470.959 257.447C469.145 259.214 467.828 261.378 467.134 263.727C466.515 265.965 466.555 268.298 467.249 270.468L471.738 285.075C472.437 287.348 473.473 288.597 474.842 288.805C476.211 289.012 477.859 288.134 479.788 286.175C481.602 284.407 482.919 282.244 483.613 279.894C484.232 277.654 484.192 275.32 483.497 273.147L482.351 269.419L478.625 273.199L479.859 277.211C480.167 278.068 480.202 279 479.959 279.895C479.707 280.683 479.258 281.409 478.652 282.01C478.455 282.267 478.203 282.481 477.914 282.639C477.624 282.797 477.303 282.893 476.975 282.922C476.482 282.891 476.082 282.373 475.77 281.359L471.108 266.19C470.799 265.326 470.762 264.387 471 263.484C471.245 262.688 471.692 261.954 472.301 261.347C472.498 261.091 472.751 260.878 473.043 260.724C473.334 260.57 473.656 260.479 473.985 260.457C474.481 260.5 474.885 261.028 475.196 262.042L476.121 265.052L479.847 261.272Z" fill="white"/>
<path d="M478.367 250.345L479.601 254.358L483.718 250.177L491.117 274.251L493.112 272.248L484.479 244.161L478.367 250.345Z" fill="white"/>
<path d="M252.058 585.067L541.609 492.252L566.82 570.903C568.301 575.524 566.705 580.576 562.837 583.506L440.505 676.202C437.957 678.133 434.718 678.909 431.572 678.342L279.548 650.948C275.387 650.198 271.979 647.213 270.688 643.186L252.058 585.067Z" fill="#02415E"/>
<path d="M226.94 506.74C225.018 500.727 227.229 492.4 231.88 488.135L336.688 392.018L385.899 545.541L282.5 645.472C277.806 650.008 272.3 648.677 270.335 642.531L226.94 506.74Z" fill="#8EC1E9"/>
<path d="M336.849 392.268L510.923 425.463C516.779 426.58 522.39 431.408 524.106 436.808L566.997 571.752C569.14 578.493 564.404 583.239 557.07 581.7L386.064 545.803L336.849 392.268Z" fill="#1D6280"/>
<g filter="url(#filter2_i_1_130)">
<path d="M750.5 410.5C800 135.5 651.427 352.743 597 162" stroke="#F0C802" stroke-width="45"/>
</g>
<path d="M612.058 532.067L901.609 439.252L926.82 517.903C928.301 522.524 926.704 527.576 922.837 530.506L800.505 623.202C797.957 625.133 794.717 625.909 791.572 625.342L639.548 597.948C635.387 597.198 631.979 594.213 630.688 590.186L612.058 532.067Z" fill="#02415E"/>
<path d="M586.94 453.74C585.018 447.727 587.229 439.4 591.879 435.135L696.688 339.018L745.899 492.541L642.5 592.472C637.806 597.009 632.299 595.677 630.335 589.531L586.94 453.74Z" fill="#1D6280"/>
<path d="M696.849 339.268L870.923 372.463C876.779 373.58 882.39 378.408 884.106 383.808L926.997 518.752C929.14 525.493 924.403 530.239 917.07 528.7L746.064 492.803L696.849 339.268Z" fill="#8EC1E9"/>
<g filter="url(#filter3_i_1_130)">
<path fill-rule="evenodd" clip-rule="evenodd" d="M723.722 642.1C724.135 635.381 723.853 626.011 722.551 613.374L769.448 621.626C771.027 636.959 771.432 649.632 770.497 659.639C769.615 669.086 767.352 678.716 761.189 685.227C757.842 688.762 753.083 691.645 746.609 692.607C740.117 693.572 733.499 692.367 727.64 690.237C716.928 686.343 707.572 678.953 700.653 672.696C686.249 659.667 670.149 640.083 654.246 619.486C642.967 604.877 630.88 588.545 618.703 572.091C613.421 564.953 608.122 557.792 602.864 550.74C585.212 527.061 567.772 504.241 551.408 485.157C534.551 465.498 520.858 452.236 510.893 445.675C507.354 443.344 505.424 442.625 504.728 442.418C504.538 442.524 504.245 442.722 503.845 443.075C499.569 446.846 493.636 459.466 492.026 491.421C489.407 543.411 474.734 577.979 447.884 595.882C420.399 614.209 383.98 612.61 347.204 601.702C310.908 590.936 272.132 570.569 235.687 548.111C198.995 525.501 163.028 499.737 132.191 477.11L154.809 446.89C185.359 469.307 219.46 493.689 253.653 514.76C288.093 535.982 321.019 552.828 349.376 561.239C377.254 569.508 398.44 569.048 413.646 558.908C429.488 548.345 442.593 524.839 444.974 477.579C446.614 445.03 452.547 420.789 466.456 408.521C474.205 401.686 484.743 398.307 497.598 399.959C509.687 401.513 521.089 407.169 530.615 413.441C549.17 425.659 568.014 445.173 585.412 465.464C603.303 486.329 621.836 510.634 639.576 534.43C645.153 541.911 650.631 549.313 656.004 556.574C667.984 572.763 679.444 588.248 690.32 602.336C703.67 619.626 714.882 633.128 723.722 642.1ZM504.998 442.305C504.997 442.31 504.958 442.328 504.88 442.341C504.959 442.306 504.998 442.299 504.998 442.305Z" fill="#F0C802"/>
<path fill-rule="evenodd" clip-rule="evenodd" d="M136.145 533.526L107.925 451.226C106.136 445.989 109.159 441.398 114.677 440.972C114.677 440.972 199.538 434.026 204.592 434.026C209.646 434.026 219.145 432.526 220.645 444.526C222.145 456.526 212.645 459.74 208.645 460.026C204.645 460.312 141.457 464.692 141.457 464.692L161.645 526.026C163.434 531.263 164.146 538.526 155.645 543.026C144.645 547.304 137.934 538.763 136.145 533.526Z" fill="#F0C802"/>
</g>
<defs>
<filter id="filter0_i_1_130" x="260.607" y="68.5513" width="117.978" height="354.747" filterUnits="userSpaceOnUse" color-interpolation-filters="sRGB">
<feFlood flood-opacity="0" result="BackgroundImageFix"/>
<feBlend mode="normal" in="SourceGraphic" in2="BackgroundImageFix" result="shape"/>
<feColorMatrix in="SourceAlpha" type="matrix" values="0 0 0 0 0 0 0 0 0 0 0 0 0 0 0 0 0 0 127 0" result="hardAlpha"/>
<feOffset dx="10" dy="14"/>
<feGaussianBlur stdDeviation="7.5"/>
<feComposite in2="hardAlpha" operator="arithmetic" k2="-1" k3="1"/>
<feColorMatrix type="matrix" values="0 0 0 0 0.7875 0 0 0 0 0.640106 0 0 0 0 0.0505313 0 0 0 0.7 0"/>
<feBlend mode="normal" in2="shape" result="effect1_innerShadow_1_130"/>
</filter>
<filter id="filter1_i_1_130" x="551" y="157.767" width="66.8736" height="42.1041" filterUnits="userSpaceOnUse" color-interpolation-filters="sRGB">
<feFlood flood-opacity="0" result="BackgroundImageFix"/>
<feBlend mode="normal" in="SourceGraphic" in2="BackgroundImageFix" result="shape"/>
<feColorMatrix in="SourceAlpha" type="matrix" values="0 0 0 0 0 0 0 0 0 0 0 0 0 0 0 0 0 0 127 0" result="hardAlpha"/>
<feOffset dx="-6" dy="4"/>
<feGaussianBlur stdDeviation="5"/>
<feComposite in2="hardAlpha" operator="arithmetic" k2="-1" k3="1"/>
<feColorMatrix type="matrix" values="0 0 0 0 0.262599 0 0 0 0 0.221946 0 0 0 0 0 0 0 0 0.3 0"/>
<feBlend mode="normal" in2="shape" result="effect1_innerShadow_1_130"/>
</filter>
<filter id="filter2_i_1_130" x="567.797" y="157.625" width="215.686" height="278.473" filterUnits="userSpaceOnUse" color-interpolation-filters="sRGB">
<feFlood flood-opacity="0" result="BackgroundImageFix"/>
<feBlend mode="normal" in="SourceGraphic" in2="BackgroundImageFix" result="shape"/>
<feColorMatrix in="SourceAlpha" type="matrix" values="0 0 0 0 0 0 0 0 0 0 0 0 0 0 0 0 0 0 127 0" result="hardAlpha"/>
<feOffset dx="-7" dy="13"/>
<feGaussianBlur stdDeviation="7.5"/>
<feComposite in2="hardAlpha" operator="arithmetic" k2="-1" k3="1"/>
<feColorMatrix type="matrix" values="0 0 0 0 0.7875 0 0 0 0 0.640106 0 0 0 0 0.0505313 0 0 0 0.7 0"/>
<feBlend mode="normal" in2="shape" result="effect1_innerShadow_1_130"/>
</filter>
<filter id="filter3_i_1_130" x="107.41" y="391.545" width="667.583" height="301.399" filterUnits="userSpaceOnUse" color-interpolation-filters="sRGB">
<feFlood flood-opacity="0" result="BackgroundImageFix"/>
<feBlend mode="normal" in="SourceGraphic" in2="BackgroundImageFix" result="shape"/>
<feColorMatrix in="SourceAlpha" type="matrix" values="0 0 0 0 0 0 0 0 0 0 0 0 0 0 0 0 0 0 127 0" result="hardAlpha"/>
<feOffset dx="4" dy="-8"/>
<feGaussianBlur stdDeviation="7.5"/>
<feComposite in2="hardAlpha" operator="arithmetic" k2="-1" k3="1"/>
<feColorMatrix type="matrix" values="0 0 0 0 0.7875 0 0 0 0 0.640106 0 0 0 0 0.0505313 0 0 0 0.45 0"/>
<feBlend mode="normal" in2="shape" result="effect1_innerShadow_1_130"/>
</filter>
</defs>
</svg>
