<svg width="712" height="424" viewBox="0 0 712 424" fill="none" xmlns="http://www.w3.org/2000/svg">
<g filter="url(#filter0_i_2_190)">
<path d="M267.06 365.818C135.745 449.19 199.941 221.934 210.189 70" stroke="#F0C802" stroke-width="45"/>
</g>
<path d="M164.112 340.701L329.146 287.799L342.453 329.311C343.934 333.932 342.337 338.984 338.47 341.915L273.239 391.342C270.691 393.273 267.452 394.049 264.306 393.482L182.688 378.775C178.527 378.025 175.119 375.039 173.828 371.013L164.112 340.701Z" fill="#1D6280"/>
<path d="M151.291 300.738C149.369 294.724 151.58 286.398 156.231 282.132L212.348 230.669L240.397 318.172L185.15 371.565C180.456 376.102 174.95 374.771 172.986 368.625L151.291 300.738Z" fill="#8EC1E9"/>
<path d="M212.44 230.812L307.272 248.896C313.128 250.012 318.739 254.84 320.455 260.24L341.855 327.568C343.997 334.309 339.261 339.055 331.928 337.515L240.491 318.322L212.44 230.812Z" fill="#02415E"/>
<path d="M566.679 232.964L689.438 193.614L698.703 222.517C700.184 227.138 698.587 232.19 694.72 235.12L648.876 269.858C646.329 271.788 643.089 272.564 639.943 271.997L582.23 261.598C578.068 260.848 574.66 257.862 573.369 253.835L566.679 232.964Z" fill="#3966FF"/>
<path d="M558.033 206.027C556.112 200.013 558.323 191.686 562.973 187.421L602.559 151.118L623.423 216.207L584.525 253.8C579.831 258.336 574.325 257.005 572.361 250.859L558.033 206.027Z" fill="#02415E"/>
<path d="M602.628 151.225L670.556 164.178C676.412 165.295 682.023 170.123 683.739 175.523L697.842 219.893C699.984 226.634 695.248 231.38 687.915 229.841L623.493 216.318L602.628 151.225Z" fill="#1D6280"/>
<path d="M31.7682 166.61L240.548 99.6861L258.036 154.246C259.518 158.866 257.921 163.919 254.054 166.849L168.762 231.478C166.214 233.408 162.975 234.184 159.829 233.617L53.4765 214.453C49.3148 213.703 45.9069 210.718 44.6161 206.691L31.7682 166.61Z" fill="#02415E"/>
<path d="M14.6267 113.169C12.705 107.156 14.9159 98.8287 19.5667 94.5636L92.7899 27.4126L128.274 138.11L56.1102 207.853C51.4162 212.389 45.9098 211.058 43.9457 204.912L14.6267 113.169Z" fill="#1D6280"/>
<path d="M92.9061 27.593L215.578 50.9859C221.434 52.1027 227.044 56.9307 228.761 62.3302L257.711 153.413C259.853 160.154 255.117 164.9 247.784 163.361L128.393 138.299L92.9061 27.593Z" fill="#3966FF"/>
<defs>
<filter id="filter0_i_2_190" x="166.607" y="68.5513" width="117.978" height="354.747" filterUnits="userSpaceOnUse" color-interpolation-filters="sRGB">
<feFlood flood-opacity="0" result="BackgroundImageFix"/>
<feBlend mode="normal" in="SourceGraphic" in2="BackgroundImageFix" result="shape"/>
<feColorMatrix in="SourceAlpha" type="matrix" values="0 0 0 0 0 0 0 0 0 0 0 0 0 0 0 0 0 0 127 0" result="hardAlpha"/>
<feOffset dx="10" dy="14"/>
<feGaussianBlur stdDeviation="7.5"/>
<feComposite in2="hardAlpha" operator="arithmetic" k2="-1" k3="1"/>
<feColorMatrix type="matrix" values="0 0 0 0 0.7875 0 0 0 0 0.640106 0 0 0 0 0.0505313 0 0 0 0.7 0"/>
<feBlend mode="normal" in2="shape" result="effect1_innerShadow_2_190"/>
</filter>
</defs>
</svg>
