<svg width="755" height="374" viewBox="0 0 755 374" fill="none" xmlns="http://www.w3.org/2000/svg">
<path d="M34.2704 179.734L259.495 107.539L278.557 167.004C280.038 171.624 278.441 176.676 274.574 179.607L181.74 249.95C179.193 251.881 175.953 252.656 172.808 252.09L57.156 231.25C52.9943 230.5 49.5864 227.514 48.2956 223.488L34.2704 179.734Z" fill="#3966FF"/>
<path d="M15.5051 121.226C13.5834 115.213 15.7943 106.886 20.4451 102.621L100.099 29.5719L138.378 148.989L59.8548 224.878C55.1608 229.415 49.6544 228.084 47.6902 221.938L15.5051 121.226Z" fill="#1D6280"/>
<path d="M100.225 29.7665L233.362 55.1553C239.218 56.272 244.829 61.1 246.545 66.4996L278.334 166.513C280.476 173.254 275.74 178 268.407 176.461L138.506 149.193L100.225 29.7665Z" fill="#02415E"/>
<path d="M552.11 287.934L723.702 232.931L737.636 276.399C739.117 281.02 737.52 286.072 733.653 289.002L665.415 340.709C662.867 342.639 659.628 343.415 656.482 342.848L571.156 327.473C566.994 326.723 563.586 323.738 562.295 319.711L552.11 287.934Z" fill="#1D6280"/>
<path d="M538.641 245.951C536.719 239.937 538.93 231.61 543.581 227.345L602.263 173.53L631.426 264.51L573.644 320.355C568.95 324.891 563.443 323.56 561.479 317.414L538.641 245.951Z" fill="#02415E"/>
<path d="M602.358 173.678L701.364 192.558C707.22 193.675 712.831 198.503 714.547 203.903L737.079 274.792C739.221 281.533 734.485 286.279 727.152 284.74L631.524 264.666L602.358 173.678Z" fill="#3966FF"/>
</svg>
