<svg width="62" height="62" viewBox="0 0 62 62" fill="none" xmlns="http://www.w3.org/2000/svg">
<g clip-path="url(#clip0_1_2)">
<path d="M31 1.5C14.7076 1.5 1.5 14.7076 1.5 31C1.5 47.2924 14.7076 60.5 31 60.5C47.2924 60.5 60.5 47.2924 60.5 31C60.5 14.7076 47.2924 1.5 31 1.5Z" stroke="#03405D" stroke-width="3"/>
<path d="M26.7558 46.5739L41.3013 32.0281C41.5741 31.7554 41.7273 31.3854 41.7273 30.9996C41.7273 30.6138 41.574 30.2438 41.3012 29.9711L26.7557 15.426C26.1877 14.8579 25.2668 14.8579 24.6987 15.426C24.1308 15.9939 24.1307 16.915 24.6987 17.483L38.2156 30.9996L24.6987 44.5169C24.4147 44.8009 24.2727 45.1732 24.2727 45.5454C24.2727 45.9177 24.4147 46.29 24.6988 46.574C25.2669 47.142 26.1878 47.142 26.7558 46.5739Z" fill="#03405D"/>
</g>
<defs>
<clipPath id="clip0_1_2">
<rect width="62" height="62" fill="white"/>
</clipPath>
</defs>
</svg>
