<svg width="62" height="62" viewBox="0 0 62 62" fill="none" xmlns="http://www.w3.org/2000/svg">
<g clip-path="url(#clip0_1_6)">
<path d="M31 60.5C47.2924 60.5 60.5 47.2924 60.5 31C60.5 14.7076 47.2924 1.5 31 1.5C14.7076 1.5 1.5 14.7076 1.5 31C1.5 47.2924 14.7076 60.5 31 60.5Z" stroke="#03405D" stroke-width="3"/>
<path d="M35.2442 15.4261L20.6987 29.9719C20.4259 30.2446 20.2727 30.6146 20.2727 31.0004C20.2727 31.3862 20.426 31.7562 20.6988 32.0289L35.2443 46.574C35.8123 47.1421 36.7332 47.1421 37.3013 46.574C37.8692 46.0061 37.8693 45.085 37.3013 44.517L23.7844 31.0004L37.3013 17.4831C37.5853 17.1991 37.7273 16.8268 37.7273 16.4546C37.7273 16.0823 37.5853 15.71 37.3012 15.426C36.7331 14.858 35.8122 14.858 35.2442 15.4261Z" fill="#03405D"/>
</g>
<defs>
<clipPath id="clip0_1_6">
<rect width="62" height="62" fill="white"/>
</clipPath>
</defs>
</svg>
