<svg width="1041" height="1041" viewBox="0 0 1041 1041" fill="none" xmlns="http://www.w3.org/2000/svg">
<path d="M528.271 1032.04C245.537 1036.55 12.6794 811.005 8.16839 528.271C3.65735 245.537 229.201 12.679 511.935 8.16796C794.669 3.65692 1027.53 229.201 1032.04 511.935C1036.55 794.669 811.005 1027.53 528.271 1032.04ZM514.769 185.751C330.111 188.697 182.805 340.78 185.751 525.437C188.698 710.095 340.78 857.401 525.438 854.455C710.095 851.509 857.401 699.426 854.455 514.768C851.509 330.111 699.426 182.805 514.769 185.751Z" fill="#02415E"/>
<path d="M484.354 901.278C490.365 901.785 495.886 903.223 500.918 905.591C505.869 908.026 510.083 911.222 513.56 915.178C517.037 919.133 519.644 923.651 521.382 928.73C523.046 933.803 523.63 939.271 523.134 945.134C522.638 950.996 521.144 956.289 518.652 961.011C516.086 965.727 512.756 969.743 508.664 973.06C504.498 976.371 499.773 978.775 494.489 980.272C489.199 981.843 483.511 982.372 477.426 981.859C470.673 981.289 464.688 979.588 459.472 976.756C454.175 973.992 449.863 970.19 446.535 965.35L459.016 955.641C461.43 958.909 464.207 961.423 467.347 963.183C470.48 965.017 473.976 966.097 477.835 966.422C481.471 966.729 484.861 966.417 488.004 965.487C491.147 964.556 493.926 963.072 496.34 961.034C498.755 958.995 500.722 956.508 502.241 953.572C503.685 950.63 504.565 947.303 504.878 943.593C505.192 939.882 504.884 936.456 503.954 933.313C502.95 930.164 501.429 927.382 499.391 924.968C497.353 922.554 494.863 920.625 491.921 919.181C488.978 917.737 485.689 916.861 482.053 916.554C478.194 916.229 474.569 916.67 471.178 917.879C467.781 919.161 464.615 921.248 461.68 924.14L451.007 912.477C455.101 908.263 459.994 905.201 465.686 903.289C471.304 901.372 477.527 900.701 484.354 901.278Z" fill="white"/>
<path d="M450.599 900.4L394.799 965.351L377.672 960.239L366.57 875.319L384.768 880.751L392.392 955.073L385.541 953.028L432.83 895.096L450.599 900.4ZM429.1 911.47L420.561 923.26L382.025 911.758L381.252 897.188L429.1 911.47Z" fill="white"/>
<path d="M365.906 874.06L327.94 942.422L312.21 933.702L336.942 889.169L279.578 915.611L264.727 907.378L302.694 839.017L318.326 847.683L293.648 892.118L350.958 865.773L365.906 874.06Z" fill="white"/>
<path d="M254.238 798.414L248.104 842.81L231.25 839.944L238.662 785.002L254.238 798.414ZM292.756 831.578L241.681 890.791L228.052 879.056L279.127 819.843L292.756 831.578ZM262.53 847.123L252.68 858.543L232.024 840.758L241.874 829.338L262.53 847.123ZM236.109 831.746L247.41 844.129L202.656 857.189L188.18 844.725L236.109 831.746Z" fill="white"/>
<path d="M225.697 767.614L172.875 809.774L173.524 803.967L191.662 826.652L180.137 835.85L137.792 782.89L149.317 773.691L167.455 796.376L161.713 795.814L214.535 753.654L225.697 767.614Z" fill="white"/>
<path d="M166.322 668.008C168.721 673.543 170.068 679.087 170.364 684.639C170.562 690.152 169.741 695.376 167.903 700.31C166.064 705.244 163.318 709.677 159.666 713.611C155.984 717.476 151.443 720.576 146.043 722.912C140.643 725.248 135.273 726.435 129.933 726.474C124.563 726.444 119.448 725.411 114.589 723.375C109.7 721.271 105.345 718.245 101.525 714.299C97.6357 710.383 94.4772 705.623 92.0489 700.02C89.3541 693.801 88.0194 687.725 88.0449 681.79C87.9724 675.817 89.2805 670.22 91.9692 665L106.431 671.401C104.695 675.074 103.795 678.709 103.731 682.307C103.599 685.935 104.302 689.525 105.842 693.078C107.293 696.427 109.173 699.265 111.48 701.594C113.788 703.922 116.412 705.668 119.35 706.831C122.289 707.994 125.412 708.55 128.718 708.499C131.994 708.38 135.341 707.581 138.758 706.102C142.176 704.624 145.049 702.732 147.377 700.426C149.676 698.052 151.407 695.396 152.569 692.459C153.731 689.522 154.252 686.416 154.131 683.142C154.011 679.867 153.225 676.555 151.774 673.207C150.234 669.654 148.129 666.669 145.459 664.254C142.721 661.869 139.383 660.067 135.446 658.849L140.669 643.931C146.319 645.544 151.334 648.405 155.712 652.516C160.061 656.558 163.598 661.722 166.322 668.008Z" fill="white"/>
<path d="M151.302 637.66L67.7206 619.076L64.1563 601.562L133.815 551.729L137.602 570.339L75.6504 612.108L74.2247 605.102L147.604 619.489L151.302 637.66ZM131.406 623.92L116.983 621.949L108.963 582.541L121.448 574.989L131.406 623.92Z" fill="white"/>
<path d="M134.773 549.589L56.5847 548.424L56.8536 530.441L107.788 531.199L57.4114 493.134L57.6652 476.156L135.854 477.32L135.586 495.192L84.7639 494.435L135.029 532.499L134.773 549.589Z" fill="white"/>
<path d="M149.076 415.391L106.983 430.859L101.601 414.643L153.608 395.342L149.076 415.391ZM137.87 464.968L61.59 447.759L65.5552 430.216L141.835 447.425L137.87 464.968ZM109.948 445.614L95.2365 442.295L101.246 415.708L115.957 419.027L109.948 445.614ZM111.124 415.074L105.493 430.866L72.9438 397.528L77.1553 378.895L111.124 415.074Z" fill="white"/>
<path d="M162.886 376.112L100.902 349.174L106.342 347.032L94.7483 373.662L81.2244 367.785L108.292 305.614L121.816 311.491L110.222 338.121L108.037 332.786L170.021 359.724L162.886 376.112Z" fill="white"/>
<path d="M223.138 277.344C219.367 282.052 215.095 285.836 210.324 288.696C205.541 291.451 200.537 293.171 195.312 293.856C190.088 294.542 184.881 294.193 179.692 292.809C174.549 291.367 169.68 288.809 165.085 285.134C160.49 281.46 156.925 277.275 154.39 272.578C151.901 267.822 150.419 262.823 149.943 257.58C149.514 252.279 150.149 247.018 151.85 241.798C153.492 236.532 156.222 231.515 160.04 226.749C164.276 221.46 169.025 217.437 174.285 214.683C179.533 211.823 185.096 210.359 190.972 210.289L192.084 226.054C188.024 226.24 184.387 227.146 181.175 228.774C177.905 230.355 175.06 232.656 172.639 235.679C170.357 238.527 168.727 241.515 167.749 244.642C166.771 247.769 166.456 250.902 166.804 254.041C167.152 257.18 168.123 260.197 169.716 263.092C171.356 265.929 173.63 268.51 176.539 270.836C179.447 273.161 182.466 274.812 185.596 275.789C188.772 276.708 191.931 276.993 195.073 276.644C198.214 276.296 201.205 275.302 204.045 273.663C206.884 272.024 209.445 269.78 211.726 266.932C214.147 263.91 215.8 260.655 216.685 257.167C217.513 253.633 217.543 249.843 216.776 245.797L232.415 243.426C233.635 249.17 233.453 254.936 231.869 260.726C230.332 266.457 227.421 271.997 223.138 277.344Z" fill="white"/>
<path d="M242.954 249.741L220.157 167.248L233.962 155.896L310.687 194.044L296.019 206.106L230.036 170.983L235.559 166.442L257.277 237.963L242.954 249.741ZM245.76 225.739L240.735 212.083L271.797 186.54L284.33 194.024L245.76 225.739Z" fill="white"/>
<path d="M311.583 194.538L275.751 125.033L291.743 116.803L315.085 162.08L324.919 99.7298L340.016 91.9598L375.848 161.464L359.956 169.643L336.665 124.465L326.78 186.717L311.583 194.538Z" fill="white"/>
<path d="M436.032 144.041L402.534 114.224L414.293 101.829L455.847 138.578L436.032 144.041ZM387.032 157.549L366.218 82.1726L383.556 77.3929L404.37 152.769L387.032 157.549ZM390.924 123.798L386.909 109.262L413.186 102.018L417.201 116.555L390.924 123.798ZM418.406 110.428L401.825 112.914L415.864 68.4865L434.28 63.4099L418.406 110.428Z" fill="white"/>
<path d="M477.814 137.485L472.305 70.1257L476.762 73.9088L447.814 76.2728L446.612 61.5761L514.195 56.0571L515.397 70.7537L486.448 73.1177L490.12 68.6709L495.628 136.031L477.814 137.485Z" fill="white"/>
<path d="M595.012 143.929C589.085 142.803 583.742 140.803 578.982 137.929C574.31 134.995 570.448 131.381 567.399 127.088C564.349 122.795 562.223 118.032 561.02 112.801C559.889 107.583 559.874 102.085 560.973 96.3048C562.073 90.5251 564.106 85.4153 567.073 80.9756C570.114 76.5498 573.841 72.8987 578.254 70.0222C582.74 67.1596 587.689 65.2565 593.099 64.3128C598.523 63.2959 604.235 63.357 610.235 64.4961C616.893 65.7601 622.67 68.0698 627.566 71.425C632.549 74.7209 636.445 78.9476 639.254 84.105L625.836 92.4733C623.773 88.9736 621.271 86.1865 618.33 84.1121C615.403 81.9645 612.037 80.5295 608.232 79.8072C604.647 79.1265 601.243 79.0867 598.021 79.6878C594.798 80.2888 591.881 81.4784 589.268 83.2565C586.656 85.0346 584.442 87.3054 582.628 90.0689C580.887 92.8462 579.668 96.064 578.972 99.722C578.277 103.38 578.229 106.82 578.829 110.042C579.502 113.278 580.727 116.201 582.505 118.813C584.282 121.425 586.56 123.6 589.337 125.34C592.114 127.081 595.295 128.291 598.88 128.972C602.685 129.694 606.336 129.629 609.834 128.777C613.345 127.852 616.71 126.103 619.929 123.53L629.339 136.233C624.831 140.001 619.648 142.542 613.788 143.855C608.002 145.182 601.743 145.207 595.012 143.929Z" fill="white"/>
<path d="M628.513 148.23L690.824 89.4901L707.321 96.369L709.45 181.98L691.922 174.671L692.139 99.9631L698.737 102.715L645.628 155.367L628.513 148.23ZM651.056 139.476L660.786 128.646L697.904 144.123L697.144 158.694L651.056 139.476Z" fill="white"/>
<path d="M709.904 183.179L754.682 119.072L769.435 129.359L740.266 171.12L800.041 150.698L813.97 160.41L769.192 224.517L754.531 214.294L783.636 172.625L723.924 192.955L709.904 183.179Z" fill="white"/>
<path d="M812.269 268.766L822.881 225.222L839.357 229.785L826.403 283.69L812.269 268.766ZM777.32 231.86L834.144 178.142L846.511 191.2L789.686 244.919L777.32 231.86ZM808.969 219.466L819.928 209.106L838.67 228.897L827.711 239.257L808.969 219.466ZM833.69 237.448L823.706 223.981L869.555 215.534L882.69 229.403L833.69 237.448Z" fill="white"/>
<path d="M838.18 302.845L895.036 266.306L893.796 272.016L878.074 247.594L890.479 239.622L927.184 296.637L914.779 304.609L899.057 280.188L904.711 281.334L847.855 317.874L838.18 302.845Z" fill="white"/>
<path d="M886.955 407.364C885.152 401.607 884.395 395.953 884.685 390.4C885.068 384.896 886.433 379.787 888.781 375.074C891.128 370.36 894.325 366.239 898.37 362.711C902.438 359.254 907.28 356.648 912.895 354.892C918.51 353.136 923.975 352.52 929.29 353.042C934.627 353.636 939.604 355.201 944.222 357.736C948.863 360.343 952.875 363.809 956.259 368.135C959.714 372.438 962.355 377.504 964.18 383.331C966.206 389.799 966.894 395.982 966.245 401.881C965.689 407.829 963.799 413.258 960.577 418.167L946.868 410.281C948.981 406.811 950.259 403.291 950.701 399.719C951.214 396.125 950.892 392.481 949.734 388.785C948.643 385.303 947.073 382.283 945.023 379.725C942.973 377.166 940.548 375.155 937.747 373.689C934.947 372.224 931.901 371.343 928.608 371.046C925.338 370.821 921.925 371.263 918.372 372.375C914.818 373.486 911.762 375.066 909.204 377.115C906.668 379.234 904.668 381.693 903.203 384.492C901.739 387.291 900.894 390.325 900.67 393.595C900.445 396.864 900.878 400.24 901.969 403.722C903.127 407.418 904.906 410.607 907.307 413.289C909.779 415.949 912.909 418.092 916.695 419.717L909.933 434.004C904.484 431.807 899.799 428.434 895.877 423.886C891.977 419.41 889.003 413.902 886.955 407.364Z" fill="white"/>
<path d="M898.996 438.65L980.202 465.776L981.934 483.565L907.491 525.93L905.651 507.028L971.594 471.887L972.286 479.003L900.792 457.106L898.996 438.65ZM917.362 454.374L931.503 457.826L935.399 497.852L922.199 504.073L917.362 454.374Z" fill="white"/>
<path d="M906.707 529.235L984.353 538.5L982.218 556.358L931.637 550.323L977.788 593.405L975.772 610.265L898.126 601L900.248 583.253L950.718 589.275L904.678 546.206L906.707 529.235Z" fill="white"/>
<path d="M879.511 658.933L922.963 647.835L926.664 664.514L872.957 678.415L879.511 658.933ZM895.717 610.758L969.846 635.649L964.112 652.696L889.982 627.805L895.717 610.758ZM921.52 632.856L935.816 637.656L927.126 663.491L912.829 658.691L921.52 632.856ZM917.234 663.116L924.447 647.98L953.427 684.46L947.336 702.565L917.234 663.116Z" fill="white"/>
<path d="M862.106 696.834L921.093 729.82L915.466 731.409L929.661 706.07L942.531 713.267L909.391 772.424L896.52 765.227L910.716 739.888L912.358 745.414L853.37 712.427L862.106 696.834Z" fill="white"/>
<path d="M790.618 791.447C794.863 787.162 799.509 783.848 804.555 781.507C809.602 779.27 814.759 778.086 820.026 777.954C825.294 777.823 830.436 778.718 835.45 780.64C840.413 782.615 844.985 785.671 849.168 789.809C853.351 793.946 856.456 798.483 858.483 803.421C860.458 808.412 861.406 813.539 861.327 818.803C861.196 824.12 860.01 829.285 857.77 834.297C855.583 839.361 852.34 844.062 848.042 848.4C843.272 853.215 838.127 856.715 832.606 858.901C827.085 861.192 821.4 862.063 815.549 861.514L816.102 845.719C820.159 845.962 823.871 845.443 827.236 844.163C830.655 842.935 833.727 840.945 836.452 838.195C839.021 835.602 840.956 832.803 842.258 829.796C843.56 826.789 844.203 823.706 844.187 820.548C844.171 817.39 843.523 814.288 842.243 811.241C840.911 808.247 838.921 805.441 836.274 802.823C833.626 800.204 830.798 798.245 827.788 796.944C824.726 795.696 821.615 795.08 818.454 795.096C815.293 795.112 812.214 795.786 809.218 797.117C806.221 798.448 803.439 800.409 800.871 803.002C798.145 805.753 796.158 808.816 794.911 812.191C793.717 815.618 793.288 819.384 793.625 823.488L777.823 824.2C777.214 818.36 778.002 812.645 780.186 807.054C782.318 801.516 785.795 796.314 790.618 791.447Z" fill="white"/>
<path d="M768.692 816.481L782.941 900.873L768.048 910.756L695.624 864.969L711.448 854.468L773.495 896.148L767.538 900.101L753.24 826.734L768.692 816.481ZM763.448 840.071L767.052 854.17L733.543 876.406L721.841 867.681L763.448 840.071Z" fill="white"/>
<path d="M695.776 864.023L724.433 936.78L707.695 943.361L689.027 895.966L672.972 957.015L657.169 963.228L628.512 890.471L645.146 883.931L663.773 931.223L679.87 870.278L695.776 864.023Z" fill="white"/>
<path d="M565.873 902.011L596.122 935.114L583.15 946.236L545.601 905.408L565.873 902.011ZM616.002 893.612L628.945 970.73L611.206 973.702L598.264 896.584L616.002 893.612ZM608.656 926.784L611.152 941.657L584.27 946.161L581.774 931.288L608.656 926.784ZM579.944 937.258L596.693 936.491L578.154 979.24L559.314 982.397L579.944 937.258Z" fill="white"/>
</svg>
