<svg width="1041" height="1041" viewBox="0 0 1041 1041" fill="none" xmlns="http://www.w3.org/2000/svg">
<path d="M528.271 1032.04C245.537 1036.55 12.6794 811.005 8.16839 528.271C3.65735 245.537 229.201 12.679 511.935 8.16796C794.669 3.65692 1027.53 229.201 1032.04 511.935C1036.55 794.669 811.005 1027.53 528.271 1032.04ZM514.769 185.751C330.111 188.697 182.805 340.78 185.751 525.437C188.697 710.095 340.78 857.401 525.438 854.455C710.095 851.509 857.401 699.426 854.455 514.768C851.509 330.111 699.426 182.805 514.769 185.751Z" fill="#3864F8"/>
<path d="M483.354 901.277C489.365 901.785 494.886 903.222 499.918 905.59C504.869 908.026 509.083 911.222 512.56 915.178C516.037 919.133 518.644 923.651 520.382 928.73C522.046 933.803 522.63 939.271 522.134 945.133C521.638 950.996 520.144 956.288 517.652 961.011C515.085 965.727 511.756 969.743 507.664 973.06C503.498 976.37 498.772 978.774 493.489 980.272C488.199 981.843 482.511 982.372 476.426 981.858C469.673 981.288 463.688 979.587 458.472 976.755C453.175 973.992 448.863 970.19 445.535 965.35L458.016 955.641C460.43 958.909 463.207 961.423 466.347 963.183C469.48 965.016 472.976 966.096 476.835 966.422C480.471 966.729 483.861 966.417 487.004 965.487C490.147 964.556 492.926 963.072 495.34 961.033C497.755 958.995 499.722 956.508 501.24 953.572C502.685 950.629 503.564 947.303 503.878 943.593C504.192 939.882 503.884 936.456 502.954 933.313C501.95 930.164 500.429 927.382 498.391 924.968C496.353 922.554 493.863 920.625 490.921 919.181C487.978 917.736 484.689 916.861 481.053 916.554C477.194 916.228 473.569 916.67 470.178 917.878C466.781 919.161 463.615 921.248 460.68 924.139L450.007 912.476C454.101 908.263 458.994 905.2 464.686 903.289C470.304 901.372 476.527 900.701 483.354 901.277Z" fill="white"/>
<path d="M449.599 900.4L393.798 965.351L376.671 960.239L365.57 875.319L383.767 880.751L391.392 955.073L384.541 953.028L431.83 895.096L449.599 900.4ZM428.1 911.47L419.56 923.26L381.024 911.758L380.251 897.188L428.1 911.47Z" fill="white"/>
<path d="M364.907 874.06L326.94 942.422L311.21 933.701L335.943 889.169L278.578 915.611L263.728 907.378L301.694 839.017L317.326 847.683L292.648 892.118L349.958 865.773L364.907 874.06Z" fill="white"/>
<path d="M253.238 798.414L247.104 842.81L230.25 839.944L237.662 785.002L253.238 798.414ZM291.756 831.578L240.681 890.791L227.052 879.056L278.127 819.843L291.756 831.578ZM261.53 847.123L251.68 858.543L231.024 840.758L240.874 829.338L261.53 847.123ZM235.11 831.745L246.41 844.128L201.656 857.189L187.18 844.725L235.11 831.745Z" fill="white"/>
<path d="M224.697 767.613L171.874 809.773L172.524 803.967L190.661 826.652L179.137 835.85L136.792 782.89L148.317 773.691L166.454 796.376L160.713 795.813L213.535 753.653L224.697 767.613Z" fill="white"/>
<path d="M165.322 668.009C167.721 673.544 169.068 679.087 169.364 684.639C169.562 690.153 168.741 695.376 166.902 700.31C165.064 705.244 162.318 709.678 158.666 713.611C154.984 717.476 150.443 720.576 145.043 722.912C139.643 725.248 134.273 726.436 128.933 726.474C123.563 726.444 118.448 725.411 113.589 723.375C108.7 721.271 104.345 718.246 100.524 714.299C96.6356 710.383 93.4771 705.623 91.0488 700.02C88.354 693.801 87.0193 687.725 87.0448 681.791C86.9723 675.817 88.2804 670.22 90.9691 665L105.431 671.402C103.695 675.074 102.795 678.709 102.731 682.307C102.598 685.935 103.302 689.525 104.842 693.079C106.293 696.427 108.173 699.265 110.48 701.594C112.788 703.922 115.411 705.668 118.35 706.831C121.289 707.994 124.412 708.55 127.717 708.499C130.994 708.38 134.341 707.581 137.758 706.103C141.176 704.624 144.049 702.732 146.377 700.426C148.676 698.052 150.407 695.397 151.569 692.46C152.731 689.522 153.252 686.417 153.131 683.142C153.011 679.867 152.225 676.556 150.774 673.207C149.234 669.654 147.129 666.67 144.459 664.254C141.721 661.869 138.383 660.067 134.446 658.849L139.669 643.931C145.319 645.544 150.334 648.405 154.712 652.516C159.061 656.558 162.598 661.722 165.322 668.009Z" fill="white"/>
<path d="M150.302 637.661L66.7203 619.076L63.156 601.562L132.815 551.73L136.602 570.339L74.6501 612.108L73.2244 605.102L146.604 619.489L150.302 637.661ZM130.406 623.92L115.983 621.949L107.963 582.541L120.448 574.989L130.406 623.92Z" fill="white"/>
<path d="M133.773 549.589L55.5847 548.424L55.8536 530.441L106.788 531.199L56.4114 493.134L56.6652 476.156L134.853 477.321L134.586 495.192L83.7639 494.435L134.028 532.499L133.773 549.589Z" fill="white"/>
<path d="M148.075 415.39L105.983 430.859L100.601 414.643L152.607 395.342L148.075 415.39ZM136.869 464.968L60.5896 447.759L64.5548 430.216L140.835 447.425L136.869 464.968ZM108.947 445.613L94.2361 442.294L100.246 415.708L114.957 419.027L108.947 445.613ZM110.124 415.074L104.493 430.866L71.9435 397.528L76.155 378.895L110.124 415.074Z" fill="white"/>
<path d="M161.886 376.111L99.9013 349.174L105.342 347.032L93.7479 373.662L80.224 367.785L107.292 305.614L120.816 311.491L109.222 338.121L107.036 332.786L169.02 359.724L161.886 376.111Z" fill="white"/>
<path d="M222.137 277.344C218.366 282.052 214.095 285.836 209.323 288.696C204.54 291.451 199.536 293.171 194.312 293.857C189.087 294.542 183.88 294.193 178.691 292.809C173.549 291.367 168.68 288.809 164.085 285.135C159.49 281.46 155.924 277.275 153.389 272.578C150.9 267.823 149.418 262.823 148.943 257.58C148.513 252.279 149.149 247.018 150.849 241.798C152.491 236.532 155.221 231.516 159.039 226.749C163.276 221.46 168.024 217.438 173.285 214.683C178.533 211.823 184.095 210.359 189.971 210.29L191.084 226.054C187.023 226.24 183.387 227.147 180.175 228.774C176.905 230.355 174.059 232.656 171.638 235.679C169.357 238.527 167.727 241.515 166.749 244.642C165.77 247.769 165.455 250.902 165.804 254.041C166.152 257.18 167.123 260.197 168.716 263.092C170.356 265.929 172.63 268.51 175.538 270.836C178.446 273.161 181.465 274.812 184.595 275.789C187.771 276.708 190.93 276.993 194.072 276.644C197.214 276.296 200.205 275.302 203.044 273.663C205.884 272.024 208.444 269.781 210.726 266.932C213.147 263.91 214.8 260.655 215.685 257.167C216.512 253.633 216.542 249.843 215.775 245.797L231.414 243.427C232.635 249.17 232.453 254.936 230.869 260.726C229.331 266.457 226.421 271.997 222.137 277.344Z" fill="white"/>
<path d="M241.954 249.741L219.157 167.248L232.962 155.896L309.687 194.044L295.019 206.106L229.036 170.983L234.558 166.443L256.277 237.963L241.954 249.741ZM244.76 225.739L239.734 212.083L270.797 186.54L283.33 194.024L244.76 225.739Z" fill="white"/>
<path d="M310.583 194.538L274.751 125.033L290.743 116.803L314.085 162.08L323.918 99.7298L339.016 91.9598L374.848 161.464L358.956 169.643L335.665 124.465L325.78 186.717L310.583 194.538Z" fill="white"/>
<path d="M435.032 144.041L401.534 114.225L413.293 101.829L454.847 138.578L435.032 144.041ZM386.031 157.549L365.217 82.1727L382.556 77.393L403.37 152.769L386.031 157.549ZM389.923 123.799L385.909 109.262L412.186 102.018L416.2 116.555L389.923 123.799ZM417.406 110.429L400.825 112.914L414.864 68.4866L433.279 63.41L417.406 110.429Z" fill="white"/>
<path d="M476.814 137.485L471.306 70.1258L475.762 73.9089L446.814 76.2729L445.612 61.5763L513.195 56.0573L514.397 70.7539L485.449 73.1179L489.12 68.6711L494.629 136.031L476.814 137.485Z" fill="white"/>
<path d="M594.011 143.928C588.085 142.803 582.742 140.803 577.982 137.929C573.309 134.995 569.448 131.381 566.398 127.088C563.349 122.795 561.222 118.032 560.019 112.801C558.889 107.583 558.874 102.084 559.973 96.3046C561.072 90.5249 563.106 85.4152 566.073 80.9755C569.113 76.5496 572.84 72.8985 577.254 70.022C581.74 67.1595 586.689 65.2563 592.099 64.3126C597.523 63.2957 603.235 63.3568 609.235 64.4959C615.893 65.76 621.67 68.0696 626.566 71.4248C631.548 74.7208 635.445 78.9474 638.254 84.1048L624.836 92.4731C622.773 88.9734 620.27 86.1863 617.329 84.1119C614.402 81.9643 611.037 80.5293 607.232 79.807C603.647 79.1263 600.243 79.0865 597.02 79.6876C593.798 80.2886 590.88 81.4782 588.268 83.2563C585.655 85.0344 583.442 87.3052 581.628 90.0687C579.886 92.8461 578.668 96.0638 577.972 99.7218C577.276 103.38 577.228 106.82 577.828 110.042C578.502 113.278 579.727 116.201 581.504 118.813C583.282 121.424 585.559 123.6 588.336 125.34C591.114 127.08 594.295 128.291 597.88 128.971C601.684 129.694 605.336 129.629 608.833 128.777C612.345 127.852 615.71 126.103 618.928 123.53L628.338 136.232C623.831 140.001 618.648 142.541 612.788 143.855C607.002 145.182 600.743 145.206 594.011 143.928Z" fill="white"/>
<path d="M627.513 148.23L689.824 89.4902L706.321 96.3692L708.45 181.98L690.923 174.671L691.139 99.9633L697.738 102.715L644.628 155.367L627.513 148.23ZM650.056 139.476L659.786 128.646L696.904 144.124L696.144 158.694L650.056 139.476Z" fill="white"/>
<path d="M708.904 183.179L753.682 119.072L768.435 129.359L739.266 171.12L799.041 150.698L812.97 160.41L768.192 224.517L753.53 214.294L782.636 172.625L722.924 192.955L708.904 183.179Z" fill="white"/>
<path d="M811.269 268.766L821.881 225.222L838.356 229.785L825.402 283.69L811.269 268.766ZM776.319 231.86L833.144 178.142L845.511 191.2L788.686 244.919L776.319 231.86ZM807.968 219.466L818.927 209.106L837.669 228.897L826.71 239.257L807.968 219.466ZM832.69 237.448L822.706 223.981L868.555 215.534L881.69 229.403L832.69 237.448Z" fill="white"/>
<path d="M837.18 302.845L894.036 266.306L892.796 272.016L877.074 247.595L889.479 239.622L926.184 296.637L913.779 304.609L898.057 280.188L903.711 281.334L846.855 317.874L837.18 302.845Z" fill="white"/>
<path d="M885.955 407.364C884.152 401.607 883.395 395.953 883.685 390.4C884.068 384.896 885.433 379.787 887.78 375.074C890.128 370.36 893.324 366.239 897.37 362.711C901.438 359.254 906.28 356.648 911.895 354.892C917.51 353.136 922.975 352.519 928.289 353.042C933.626 353.636 938.604 355.201 943.222 357.736C947.862 360.343 951.875 363.809 955.259 368.135C958.714 372.438 961.354 377.504 963.18 383.331C965.206 389.799 965.894 395.982 965.244 401.881C964.688 407.829 962.799 413.258 959.576 418.167L945.868 410.281C947.981 406.811 949.258 403.291 949.7 399.719C950.213 396.125 949.891 392.481 948.734 388.785C947.643 385.303 946.072 382.283 944.022 379.724C941.972 377.166 939.547 375.155 936.747 373.689C933.947 372.224 930.9 371.343 927.608 371.046C924.337 370.821 920.925 371.263 917.371 372.375C913.817 373.486 910.761 375.066 908.203 377.114C905.667 379.234 903.667 381.693 902.203 384.492C900.738 387.291 899.894 390.325 899.669 393.594C899.445 396.864 899.878 400.24 900.969 403.722C902.126 407.418 903.906 410.607 906.307 413.289C908.779 415.949 911.908 418.092 915.695 419.717L908.933 434.004C903.484 431.807 898.798 428.434 894.876 423.886C890.977 419.41 888.003 413.902 885.955 407.364Z" fill="white"/>
<path d="M897.996 438.65L979.203 465.775L980.934 483.565L906.491 525.93L904.652 507.028L970.594 471.887L971.287 479.003L899.793 457.106L897.996 438.65ZM916.362 454.374L930.504 457.825L934.399 497.852L921.2 504.073L916.362 454.374Z" fill="white"/>
<path d="M905.706 529.235L983.353 538.5L981.217 556.358L930.636 550.322L976.787 593.405L974.771 610.265L897.125 601L899.247 583.253L949.717 589.275L903.677 546.206L905.706 529.235Z" fill="white"/>
<path d="M878.511 658.933L921.964 647.835L925.664 664.514L871.957 678.415L878.511 658.933ZM894.717 610.758L968.847 635.649L963.112 652.696L888.983 627.805L894.717 610.758ZM920.52 632.856L934.817 637.656L926.126 663.491L911.829 658.691L920.52 632.856ZM916.234 663.115L923.447 647.979L952.427 684.46L946.336 702.565L916.234 663.115Z" fill="white"/>
<path d="M861.105 696.834L920.093 729.82L914.466 731.409L928.661 706.069L941.531 713.266L908.39 772.424L895.52 765.227L909.716 739.888L911.358 745.413L852.37 712.427L861.105 696.834Z" fill="white"/>
<path d="M789.618 791.447C793.864 787.162 798.509 783.848 803.555 781.507C808.602 779.27 813.759 778.086 819.027 777.954C824.294 777.823 829.436 778.718 834.45 780.64C839.413 782.615 843.985 785.671 848.168 789.809C852.351 793.946 855.456 798.483 857.483 803.421C859.458 808.412 860.406 813.539 860.327 818.803C860.196 824.12 859.01 829.285 856.77 834.297C854.583 839.361 851.34 844.062 847.042 848.4C842.272 853.214 837.127 856.715 831.606 858.901C826.086 861.192 820.4 862.063 814.549 861.513L815.102 845.719C819.16 845.962 822.871 845.443 826.237 844.163C829.655 842.935 832.727 840.945 835.453 838.195C838.021 835.602 839.956 832.803 841.258 829.796C842.56 826.789 843.203 823.706 843.187 820.548C843.171 817.39 842.523 814.287 841.243 811.241C839.911 808.247 837.921 805.441 835.274 802.823C832.626 800.204 829.798 798.245 826.788 796.944C823.726 795.696 820.615 795.08 817.454 795.096C814.293 795.112 811.214 795.786 808.218 797.117C805.222 798.448 802.439 800.409 799.871 803.002C797.145 805.753 795.159 808.816 793.911 812.191C792.717 815.618 792.288 819.384 792.625 823.488L776.823 824.2C776.214 818.36 777.002 812.645 779.186 807.054C781.318 801.516 784.795 796.314 789.618 791.447Z" fill="white"/>
<path d="M767.692 816.481L781.941 900.873L767.048 910.756L694.624 864.969L710.448 854.468L772.495 896.148L766.538 900.101L752.24 826.734L767.692 816.481ZM762.448 840.071L766.052 854.17L732.543 876.406L720.841 867.681L762.448 840.071Z" fill="white"/>
<path d="M694.776 864.024L723.433 936.78L706.695 943.362L688.027 895.966L671.972 957.015L656.169 963.228L627.513 890.471L644.146 883.931L662.773 931.223L678.87 870.278L694.776 864.024Z" fill="white"/>
<path d="M564.874 902.011L595.122 935.114L582.15 946.235L544.601 905.408L564.874 902.011ZM615.003 893.612L627.945 970.73L610.207 973.702L597.265 896.584L615.003 893.612ZM607.657 926.784L610.153 941.657L583.27 946.161L580.774 931.288L607.657 926.784ZM578.944 937.258L595.693 936.491L577.155 979.24L558.315 982.397L578.944 937.258Z" fill="white"/>
</svg>
