<svg width="1041" height="1041" viewBox="0 0 1041 1041" fill="none" xmlns="http://www.w3.org/2000/svg">
<path d="M528.27 1032.04C245.536 1036.55 12.6784 811.005 8.16741 528.271C3.65637 245.537 229.201 12.679 511.934 8.16796C794.668 3.65692 1027.53 229.201 1032.04 511.935C1036.55 794.669 811.004 1027.53 528.27 1032.04ZM514.768 185.751C330.11 188.697 182.804 340.78 185.75 525.437C188.696 710.095 340.779 857.401 525.437 854.455C710.094 851.509 857.4 699.426 854.454 514.768C851.508 330.111 699.425 182.805 514.768 185.751Z" fill="#FFDA18"/>
<path d="M483.353 901.278C489.364 901.785 494.885 903.223 499.917 905.591C504.868 908.027 509.082 911.222 512.559 915.178C516.036 919.134 518.643 923.651 520.381 928.731C522.045 933.804 522.629 939.271 522.133 945.134C521.637 950.996 520.143 956.289 517.651 961.011C515.085 965.727 511.755 969.744 507.663 973.06C503.497 976.371 498.772 978.775 493.488 980.272C488.198 981.844 482.51 982.372 476.425 981.859C469.672 981.289 463.687 979.588 458.471 976.756C453.174 973.992 448.862 970.19 445.534 965.35L458.015 955.641C460.429 958.909 463.206 961.423 466.346 963.183C469.479 965.017 472.975 966.097 476.834 966.423C480.47 966.729 483.86 966.418 487.003 965.487C490.146 964.557 492.925 963.072 495.339 961.034C497.754 958.995 499.721 956.508 501.24 953.572C502.684 950.63 503.563 947.304 503.877 943.593C504.191 939.883 503.883 936.456 502.953 933.313C501.949 930.164 500.428 927.383 498.39 924.969C496.352 922.554 493.862 920.625 490.92 919.181C487.977 917.737 484.688 916.861 481.052 916.555C477.193 916.229 473.568 916.67 470.177 917.879C466.78 919.162 463.614 921.249 460.679 924.14L450.006 912.477C454.1 908.263 458.993 905.201 464.685 903.29C470.303 901.372 476.526 900.702 483.353 901.278Z" fill="#1D6280"/>
<path d="M449.598 900.4L393.797 965.351L376.67 960.239L365.569 875.319L383.766 880.751L391.391 955.073L384.54 953.028L431.829 895.096L449.598 900.4ZM428.099 911.47L419.559 923.26L381.024 911.758L380.25 897.188L428.099 911.47Z" fill="#1D6280"/>
<path d="M364.906 874.061L326.939 942.422L311.209 933.702L335.942 889.169L278.577 915.611L263.727 907.379L301.693 839.017L317.325 847.683L292.647 892.118L349.957 865.774L364.906 874.061Z" fill="#1D6280"/>
<path d="M253.237 798.414L247.103 842.811L230.249 839.945L237.661 785.002L253.237 798.414ZM291.755 831.579L240.68 890.791L227.051 879.056L278.126 819.843L291.755 831.579ZM261.529 847.124L251.679 858.543L231.023 840.758L240.873 829.339L261.529 847.124ZM235.109 831.746L246.409 844.129L201.655 857.19L187.179 844.726L235.109 831.746Z" fill="#1D6280"/>
<path d="M224.696 767.614L171.873 809.774L172.523 803.967L190.66 826.652L179.136 835.851L136.791 782.89L148.316 773.691L166.453 796.376L160.712 795.814L213.534 753.654L224.696 767.614Z" fill="#1D6280"/>
<path d="M165.321 668.009C167.72 673.544 169.067 679.087 169.363 684.639C169.561 690.153 168.74 695.376 166.901 700.31C165.063 705.244 162.317 709.678 158.665 713.611C154.983 717.476 150.442 720.576 145.042 722.912C139.642 725.248 134.272 726.436 128.932 726.474C123.562 726.444 118.447 725.411 113.588 723.375C108.699 721.271 104.344 718.246 100.523 714.299C96.6346 710.383 93.4761 705.623 91.0478 700.02C88.353 693.801 87.0183 687.725 87.0438 681.791C86.9713 675.817 88.2794 670.22 90.9681 665L105.43 671.402C103.694 675.074 102.794 678.709 102.73 682.307C102.597 685.935 103.301 689.525 104.841 693.079C106.292 696.427 108.172 699.265 110.479 701.594C112.787 703.922 115.41 705.668 118.349 706.831C121.288 707.994 124.411 708.55 127.716 708.499C130.993 708.38 134.34 707.581 137.757 706.103C141.175 704.624 144.048 702.732 146.376 700.426C148.675 698.052 150.406 695.397 151.568 692.46C152.73 689.522 153.251 686.417 153.13 683.142C153.01 679.867 152.224 676.556 150.773 673.207C149.233 669.654 147.128 666.67 144.458 664.254C141.72 661.869 138.382 660.067 134.445 658.849L139.668 643.931C145.318 645.544 150.333 648.405 154.711 652.516C159.06 656.558 162.597 661.722 165.321 668.009Z" fill="#1D6280"/>
<path d="M150.301 637.661L66.7193 619.077L63.155 601.562L132.814 551.73L136.601 570.339L74.6491 612.108L73.2234 605.102L146.603 619.489L150.301 637.661ZM130.405 623.92L115.982 621.949L107.962 582.541L120.447 574.989L130.405 623.92Z" fill="#1D6280"/>
<path d="M133.772 549.589L55.5837 548.424L55.8526 530.441L106.787 531.2L56.4104 493.134L56.6642 476.156L134.853 477.321L134.585 495.192L83.7629 494.435L134.028 532.499L133.772 549.589Z" fill="#1D6280"/>
<path d="M148.075 415.391L105.982 430.859L100.6 414.643L152.606 395.342L148.075 415.391ZM136.868 464.968L60.5887 447.759L64.5539 430.216L140.834 447.425L136.868 464.968ZM108.946 445.614L94.2352 442.295L100.245 415.708L114.956 419.027L108.946 445.614ZM110.123 415.074L104.492 430.867L71.9425 397.528L76.154 378.896L110.123 415.074Z" fill="#1D6280"/>
<path d="M161.885 376.112L99.9003 349.175L105.341 347.032L93.7469 373.662L80.2231 367.785L107.291 305.614L120.815 311.491L109.221 338.121L107.035 332.787L169.019 359.724L161.885 376.112Z" fill="#1D6280"/>
<path d="M222.136 277.344C218.365 282.052 214.094 285.836 209.322 288.696C204.539 291.451 199.535 293.171 194.311 293.857C189.086 294.542 183.879 294.193 178.69 292.809C173.548 291.367 168.679 288.809 164.084 285.135C159.489 281.46 155.923 277.275 153.388 272.578C150.899 267.823 149.417 262.823 148.942 257.58C148.512 252.279 149.148 247.018 150.848 241.798C152.49 236.532 155.22 231.516 159.038 226.749C163.275 221.46 168.023 217.438 173.284 214.683C178.532 211.823 184.094 210.359 189.97 210.29L191.083 226.054C187.022 226.24 183.386 227.147 180.174 228.774C176.904 230.355 174.058 232.656 171.637 235.679C169.356 238.527 167.726 241.515 166.748 244.642C165.769 247.769 165.454 250.902 165.803 254.041C166.151 257.18 167.122 260.197 168.715 263.092C170.355 265.929 172.629 268.51 175.537 270.836C178.445 273.161 181.464 274.812 184.594 275.789C187.77 276.708 190.929 276.993 194.071 276.644C197.213 276.296 200.204 275.302 203.043 273.663C205.883 272.024 208.443 269.781 210.725 266.932C213.146 263.91 214.799 260.655 215.684 257.167C216.511 253.633 216.541 249.843 215.774 245.797L231.413 243.427C232.634 249.17 232.452 254.936 230.868 260.726C229.33 266.457 226.42 271.997 222.136 277.344Z" fill="#1D6280"/>
<path d="M241.953 249.741L219.156 167.248L232.961 155.896L309.686 194.045L295.018 206.106L229.035 170.984L234.557 166.443L256.276 237.963L241.953 249.741ZM244.759 225.739L239.733 212.083L270.796 186.541L283.329 194.024L244.759 225.739Z" fill="#1D6280"/>
<path d="M310.582 194.538L274.75 125.034L290.742 116.804L314.084 162.081L323.917 99.7301L339.015 91.9601L374.847 161.464L358.955 169.643L335.664 124.465L325.779 186.717L310.582 194.538Z" fill="#1D6280"/>
<path d="M435.031 144.041L401.533 114.225L413.292 101.829L454.846 138.579L435.031 144.041ZM386.03 157.549L365.217 82.173L382.555 77.3932L403.369 152.769L386.03 157.549ZM389.922 123.799L385.908 109.262L412.185 102.018L416.199 116.555L389.922 123.799ZM417.405 110.429L400.824 112.914L414.863 68.4869L433.278 63.4103L417.405 110.429Z" fill="#1D6280"/>
<path d="M476.813 137.485L471.305 70.1258L475.761 73.9089L446.813 76.2729L445.611 61.5763L513.194 56.0573L514.396 70.7539L485.448 73.1179L489.119 68.6711L494.628 136.031L476.813 137.485Z" fill="#1D6280"/>
<path d="M594.01 143.929C588.084 142.804 582.741 140.804 577.981 137.929C573.308 134.995 569.447 131.382 566.398 127.088C563.348 122.795 561.222 118.033 560.018 112.801C558.888 107.584 558.873 102.085 559.972 96.3051C561.072 90.5254 563.105 85.4156 566.072 80.9759C569.112 76.5501 572.839 72.899 577.253 70.0225C581.739 67.1599 586.688 65.2568 592.098 64.3131C597.522 63.2962 603.234 63.3573 609.234 64.4964C615.892 65.7605 621.669 68.0701 626.565 71.4253C631.547 74.7213 635.444 78.9479 638.253 84.1053L624.835 92.4736C622.772 88.9739 620.269 86.1868 617.328 84.1124C614.401 81.9648 611.036 80.5298 607.231 79.8075C603.646 79.1268 600.242 79.087 597.019 79.6881C593.797 80.2891 590.879 81.4787 588.267 83.2568C585.654 85.0349 583.441 87.3057 581.627 90.0692C579.885 92.8465 578.667 96.0643 577.971 99.7223C577.275 103.38 577.227 106.82 577.827 110.042C578.501 113.278 579.726 116.202 581.503 118.813C583.281 121.425 585.558 123.601 588.335 125.341C591.113 127.081 594.294 128.291 597.879 128.972C601.684 129.694 605.335 129.629 608.832 128.777C612.344 127.852 615.709 126.103 618.927 123.531L628.337 136.233C623.83 140.001 618.647 142.542 612.787 143.855C607.001 145.182 600.742 145.207 594.01 143.929Z" fill="#1D6280"/>
<path d="M627.512 148.23L689.823 89.4902L706.32 96.3692L708.45 181.98L690.922 174.671L691.138 99.9633L697.737 102.715L644.627 155.367L627.512 148.23ZM650.055 139.476L659.785 128.646L696.903 144.124L696.143 158.694L650.055 139.476Z" fill="#1D6280"/>
<path d="M708.903 183.18L753.681 119.072L768.434 129.359L739.265 171.12L799.04 150.698L812.969 160.41L768.191 224.517L753.529 214.294L782.635 172.625L722.923 192.955L708.903 183.18Z" fill="#1D6280"/>
<path d="M811.268 268.766L821.88 225.222L838.355 229.785L825.401 283.69L811.268 268.766ZM776.318 231.86L833.143 178.142L845.51 191.201L788.685 244.919L776.318 231.86ZM807.967 219.466L818.926 209.106L837.668 228.897L826.709 239.257L807.967 219.466ZM832.689 237.448L822.705 223.981L868.554 215.534L881.689 229.404L832.689 237.448Z" fill="#1D6280"/>
<path d="M837.179 302.845L894.035 266.306L892.795 272.016L877.073 247.595L889.478 239.623L926.183 296.637L913.778 304.609L898.056 280.188L903.71 281.335L846.855 317.874L837.179 302.845Z" fill="#1D6280"/>
<path d="M885.954 407.364C884.151 401.608 883.394 395.953 883.684 390.4C884.067 384.896 885.432 379.788 887.779 375.074C890.127 370.36 893.324 366.24 897.369 362.712C901.437 359.255 906.279 356.648 911.894 354.892C917.509 353.136 922.974 352.52 928.288 353.043C933.625 353.637 938.603 355.201 943.221 357.737C947.861 360.343 951.874 363.809 955.258 368.135C958.713 372.438 961.353 377.504 963.179 383.332C965.205 389.799 965.893 395.982 965.243 401.881C964.687 407.829 962.798 413.258 959.575 418.167L945.867 410.281C947.98 406.812 949.257 403.291 949.699 399.719C950.212 396.126 949.89 392.481 948.733 388.785C947.642 385.303 946.071 382.283 944.021 379.725C941.971 377.167 939.546 375.155 936.746 373.69C933.946 372.224 930.899 371.343 927.607 371.047C924.336 370.821 920.924 371.264 917.37 372.375C913.816 373.486 910.76 375.066 908.202 377.115C905.666 379.234 903.666 381.693 902.202 384.492C900.737 387.291 899.893 390.325 899.668 393.595C899.444 396.864 899.877 400.24 900.968 403.722C902.125 407.418 903.905 410.607 906.306 413.289C908.778 415.95 911.907 418.092 915.694 419.717L908.932 434.004C903.483 431.807 898.797 428.434 894.875 423.887C890.976 419.41 888.002 413.902 885.954 407.364Z" fill="#1D6280"/>
<path d="M897.995 438.65L979.202 465.776L980.933 483.565L906.49 525.93L904.651 507.029L970.593 471.888L971.286 479.003L899.792 457.107L897.995 438.65ZM916.361 454.374L930.503 457.826L934.398 497.852L921.199 504.074L916.361 454.374Z" fill="#1D6280"/>
<path d="M905.705 529.235L983.352 538.5L981.216 556.358L930.635 550.323L976.786 593.406L974.77 610.265L897.124 601.001L899.246 583.253L949.716 589.275L903.676 546.206L905.705 529.235Z" fill="#1D6280"/>
<path d="M878.51 658.933L921.963 647.835L925.663 664.514L871.956 678.415L878.51 658.933ZM894.716 610.758L968.846 635.65L963.111 652.696L888.982 627.805L894.716 610.758ZM920.519 632.856L934.816 637.657L926.125 663.491L911.828 658.691L920.519 632.856ZM916.233 663.116L923.446 647.98L952.426 684.46L946.335 702.565L916.233 663.116Z" fill="#1D6280"/>
<path d="M861.104 696.834L920.092 729.82L914.465 731.409L928.66 706.07L941.53 713.267L908.389 772.424L895.519 765.227L909.715 739.888L911.357 745.414L852.369 712.428L861.104 696.834Z" fill="#1D6280"/>
<path d="M789.617 791.447C793.863 787.162 798.509 783.849 803.554 781.507C808.601 779.271 813.758 778.087 819.026 777.955C824.293 777.823 829.435 778.718 834.45 780.64C839.412 782.615 843.984 785.672 848.167 789.809C852.35 793.946 855.455 798.484 857.482 803.421C859.457 808.412 860.405 813.539 860.326 818.804C860.195 824.121 859.009 829.285 856.769 834.297C854.582 839.361 851.339 844.063 847.041 848.401C842.271 853.215 837.126 856.715 831.605 858.901C826.085 861.192 820.399 862.063 814.548 861.514L815.101 845.72C819.159 845.962 822.87 845.443 826.236 844.163C829.654 842.935 832.726 840.946 835.452 838.195C838.02 835.603 839.955 832.803 841.257 829.796C842.559 826.789 843.202 823.706 843.186 820.548C843.17 817.39 842.522 814.288 841.242 811.241C839.91 808.248 837.92 805.441 835.273 802.823C832.625 800.204 829.797 798.245 826.787 796.944C823.725 795.696 820.614 795.08 817.453 795.096C814.292 795.112 811.213 795.786 808.217 797.117C805.221 798.448 802.438 800.41 799.87 803.002C797.144 805.753 795.158 808.816 793.91 812.191C792.716 815.619 792.287 819.384 792.624 823.488L776.822 824.2C776.213 818.36 777.001 812.645 779.185 807.054C781.317 801.517 784.795 796.314 789.617 791.447Z" fill="#1D6280"/>
<path d="M767.691 816.481L781.94 900.873L767.047 910.756L694.623 864.969L710.447 854.468L772.494 896.148L766.537 900.101L752.239 826.734L767.691 816.481ZM762.447 840.071L766.051 854.17L732.542 876.407L720.84 867.682L762.447 840.071Z" fill="#1D6280"/>
<path d="M694.775 864.024L723.432 936.78L706.694 943.362L688.026 895.966L671.971 957.015L656.168 963.228L627.512 890.471L644.146 883.931L662.772 931.223L678.869 870.278L694.775 864.024Z" fill="#1D6280"/>
<path d="M564.873 902.011L595.121 935.114L582.149 946.236L544.6 905.408L564.873 902.011ZM615.002 893.612L627.944 970.731L610.206 973.703L597.264 896.584L615.002 893.612ZM607.656 926.784L610.152 941.657L583.269 946.161L580.773 931.289L607.656 926.784ZM578.943 937.259L595.692 936.491L577.154 979.241L558.314 982.397L578.943 937.259Z" fill="#1D6280"/>
</svg>
