<svg width="43" height="25" viewBox="0 0 43 25" fill="none" xmlns="http://www.w3.org/2000/svg">
<path fill-rule="evenodd" clip-rule="evenodd" d="M21.103 24.5068H23.7101C23.7101 24.5068 24.4923 24.3764 24.8833 23.9853C25.2744 23.5943 25.2744 22.8121 25.2744 22.8121C25.2744 22.8121 25.2744 19.4229 26.8387 18.9015C28.4029 18.3801 30.4886 22.2907 32.5743 23.7246C34.1385 24.8978 35.3117 24.6371 35.3117 24.6371L41.0474 24.5068C41.0474 24.5068 44.0455 24.3764 42.6116 21.8997C42.4813 21.7693 41.8295 20.205 38.3099 16.9462C34.66 13.5569 35.1814 14.2087 39.4831 8.34272C42.0902 4.82314 43.133 2.73746 42.8723 1.69461C42.6116 0.782129 40.6563 1.04284 40.6563 1.04284H34.1385C34.1385 1.04284 33.6171 0.912485 33.3564 1.1732C32.9653 1.43391 32.835 1.82497 32.835 1.82497C32.835 1.82497 31.7922 4.56243 30.4886 6.90882C27.6208 11.732 26.4476 11.9927 26.0565 11.732C25.0137 11.0802 25.2744 8.86414 25.2744 7.43024C25.2744 2.73746 26.0565 0.782129 23.8405 0.260709C23.1887 0.130354 22.6673 0 20.8423 0C18.4959 0 16.5406 -5.05035e-07 15.4978 0.52142C14.7156 0.912485 14.1942 1.69461 14.5853 1.69461C14.9763 1.69461 16.0192 1.95533 16.5406 2.6071C17.062 3.7803 17.062 5.73562 17.062 5.73562C17.062 5.73562 17.4531 11.3409 16.1495 11.9927C15.2371 12.5141 14.0639 11.4712 11.4568 7.03917C10.1532 4.82314 9.11037 2.21603 9.11037 2.21603C9.11037 2.21603 8.98002 1.69462 8.58895 1.43391C8.19789 1.1732 7.54611 1.04284 7.54611 1.04284H1.41942C1.41942 1.04284 0.506936 1.04284 0.115871 1.43391C-0.144839 1.82497 0.115871 2.47675 0.115871 2.47675C0.115871 2.47675 4.93901 13.6873 10.4139 19.4229C15.4978 24.8978 21.103 24.5068 21.103 24.5068Z" fill="#FBFBFB"/>
</svg>
